<svg width="583" height="397" viewBox="0 0 583 397" fill="none" xmlns="http://www.w3.org/2000/svg">
<g filter="url(#filter0_dd_114_1258)">
<g clip-path="url(#clip0_114_1258)">
<rect x="20" y="10" width="542.187" height="347" rx="14.4583" fill="white"/>
<g clip-path="url(#clip1_114_1258)">
<path d="M35.1811 27.8515C33.5175 27.8515 32.1689 26.503 32.1689 24.8394C32.1689 23.1758 33.5175 21.8272 35.1811 21.8272C36.8447 21.8272 38.1933 23.1758 38.1933 24.8394C38.1933 26.503 36.8447 27.8515 35.1811 27.8515Z" fill="#E11D48"/>
</g>
<g clip-path="url(#clip2_114_1258)">
<path d="M46.0248 27.8515C44.3612 27.8515 43.0127 26.503 43.0127 24.8394C43.0127 23.1758 44.3612 21.8272 46.0248 21.8272C47.6885 21.8272 49.037 23.1758 49.037 24.8394C49.037 26.503 47.6885 27.8515 46.0248 27.8515Z" fill="#FBBF24"/>
</g>
<g clip-path="url(#clip3_114_1258)">
<path d="M56.8686 27.8515C55.205 27.8515 53.8564 26.503 53.8564 24.8394C53.8564 23.1758 55.205 21.8272 56.8686 21.8272C58.5322 21.8272 59.8808 23.1758 59.8808 24.8394C59.8808 26.503 58.5322 27.8515 56.8686 27.8515Z" fill="#22C55E"/>
</g>
<g filter="url(#filter1_dd_114_1258)">
<rect x="20" y="39.6396" width="542.187" height="317.36" fill="#002B54" shape-rendering="crispEdges"/>
<path d="M20 40.0627H110.819V357H20V40.0627Z" fill="#002B54"/>
<path d="M30.8984 70.1062C30.8984 67.3018 33.3381 65.0284 36.3476 65.0284H94.4715C97.481 65.0284 99.9206 67.3018 99.9206 70.1062C99.9206 72.9106 97.481 75.184 94.4715 75.184H36.3476C33.3381 75.184 30.8984 72.9106 30.8984 70.1062Z" fill="#93C5FD"/>
<path d="M52.6943 105.651C52.6943 104.248 53.9142 103.112 55.4189 103.112H100.828C102.333 103.112 103.553 104.248 103.553 105.651C103.553 107.053 102.333 108.189 100.828 108.189H55.4189C53.9142 108.189 52.6943 107.053 52.6943 105.651Z" fill="white"/>
<path d="M52.6943 132.732C52.6943 131.33 53.9142 130.193 55.4189 130.193H86.7513C88.2561 130.193 89.4759 131.33 89.4759 132.732C89.4759 134.134 88.2561 135.271 86.7513 135.271H55.4189C53.9142 135.271 52.6943 134.134 52.6943 132.732Z" fill="white"/>
<path d="M52.6943 159.813C52.6943 158.411 53.9142 157.274 55.4189 157.274H94.4709C95.9757 157.274 97.1955 158.411 97.1955 159.813C97.1955 161.216 95.9757 162.352 94.4709 162.352H55.4189C53.9142 162.352 52.6943 161.216 52.6943 159.813Z" fill="white"/>
<path fill-rule="evenodd" clip-rule="evenodd" d="M38.1639 111.151C41.4242 111.151 44.0671 108.689 44.0671 105.651C44.0671 102.612 41.4242 100.15 38.1639 100.15C34.9037 100.15 32.2607 102.612 32.2607 105.651C32.2607 108.689 34.9037 111.151 38.1639 111.151ZM38.1639 112.421C42.1766 112.421 45.4294 109.39 45.4294 105.651C45.4294 101.911 42.1766 98.8802 38.1639 98.8802C34.1513 98.8802 30.8984 101.911 30.8984 105.651C30.8984 109.39 34.1513 112.421 38.1639 112.421Z" fill="#93C5FD"/>
<path d="M139.881 70.1062C139.881 68.2366 141.507 66.721 143.514 66.721H196.188C198.195 66.721 199.821 68.2366 199.821 70.1062C199.821 71.9758 198.195 73.4914 196.188 73.4914H143.514C141.507 73.4914 139.881 71.9758 139.881 70.1062Z" fill="#002B54"/>
<path fill-rule="evenodd" clip-rule="evenodd" d="M236.375 206.597C236.402 204.183 238.46 202.128 241.104 202.128C242.728 202.128 243.922 202.877 244.684 203.582C244.896 203.778 245.078 203.974 245.23 204.154C245.383 203.974 245.565 203.778 245.777 203.582C246.539 202.877 247.733 202.128 249.356 202.128C252.001 202.128 254.058 204.183 254.085 206.597L254.085 206.597C254.135 211.304 250.076 214.561 245.997 217.142C245.771 217.285 245.504 217.361 245.23 217.361C244.957 217.361 244.69 217.285 244.464 217.142C240.384 214.561 236.325 211.304 236.375 206.597L236.375 206.597ZM245.839 205.587C245.723 205.801 245.488 205.936 245.23 205.936C244.973 205.936 244.738 205.801 244.622 205.587C244.622 205.587 244.621 205.586 244.621 205.586C244.62 205.584 244.619 205.582 244.617 205.578C244.616 205.576 244.615 205.574 244.613 205.572C244.606 205.559 244.593 205.537 244.575 205.508C244.54 205.45 244.484 205.363 244.408 205.258C244.256 205.046 244.027 204.764 243.724 204.483C243.114 203.918 242.245 203.398 241.104 203.398C239.257 203.398 237.757 204.844 237.738 206.61M245.839 205.587C245.839 205.587 245.839 205.586 245.839 205.586C245.841 205.583 245.843 205.579 245.847 205.572C245.855 205.559 245.868 205.537 245.885 205.508C245.921 205.45 245.977 205.363 246.052 205.258C246.205 205.046 246.433 204.764 246.737 204.483C247.347 203.918 248.216 203.398 249.356 203.398C251.204 203.398 252.703 204.844 252.723 206.61C252.765 210.576 249.347 213.488 245.231 216.092L245.23 216.092L245.23 216.092C241.114 213.488 237.695 210.576 237.738 206.61" fill="white"/>
<path d="M139.881 209.745C139.881 207.875 141.507 206.36 143.514 206.36H168.035C170.041 206.36 171.667 207.875 171.667 209.745C171.667 211.614 170.041 213.13 168.035 213.13H143.514C141.507 213.13 139.881 211.614 139.881 209.745Z" fill="#002B54"/>
<path d="M178.933 209.745C178.933 207.875 180.559 206.36 182.565 206.36H223.434C225.44 206.36 227.067 207.875 227.067 209.745C227.067 211.614 225.44 213.13 223.434 213.13H182.565C180.559 213.13 178.933 211.614 178.933 209.745Z" fill="#002B54"/>
<path d="M139.881 242.75C139.881 241.348 141.101 240.211 142.605 240.211H180.749C182.254 240.211 183.474 241.348 183.474 242.75C183.474 244.152 182.254 245.289 180.749 245.289H142.605C141.101 245.289 139.881 244.152 139.881 242.75Z" fill="white"/>
<path d="M139.881 254.598C139.881 253.196 141.101 252.059 142.605 252.059H201.183C202.688 252.059 203.908 253.196 203.908 254.598C203.908 256.001 202.688 257.137 201.183 257.137H142.605C141.101 257.137 139.881 256.001 139.881 254.598Z" fill="white"/>
<path d="M190.739 242.75C190.739 241.348 191.959 240.211 193.464 240.211H238.873C240.378 240.211 241.598 241.348 241.598 242.75C241.598 244.152 240.378 245.289 238.873 245.289H193.464C191.959 245.289 190.739 244.152 190.739 242.75Z" fill="white"/>
<path d="M139.881 103.112C139.881 101.709 141.101 100.573 142.605 100.573H180.749C182.254 100.573 183.474 101.709 183.474 103.112C183.474 104.514 182.254 105.651 180.749 105.651H142.605C141.101 105.651 139.881 104.514 139.881 103.112Z" fill="white"/>
<path d="M139.881 114.96C139.881 113.558 141.101 112.421 142.605 112.421H236.603C238.107 112.421 239.327 113.558 239.327 114.96C239.327 116.362 238.107 117.499 236.603 117.499H142.605C141.101 117.499 139.881 116.362 139.881 114.96Z" fill="white"/>
<path d="M190.739 103.112C190.739 101.709 191.959 100.573 193.464 100.573H296.997C298.502 100.573 299.722 101.709 299.722 103.112C299.722 104.514 298.502 105.651 296.997 105.651H193.464C191.959 105.651 190.739 104.514 190.739 103.112Z" fill="white"/>
<path fill-rule="evenodd" clip-rule="evenodd" d="M44.5212 127.231H32.7148V138.233H44.5212V127.231ZM31.3525 125.962V139.502H45.8835V125.962H31.3525Z" fill="#60A5FA"/>
<g clip-path="url(#clip4_114_1258)">
<rect x="334.687" y="70.1062" width="90.8187" height="115.942" rx="14.4583" fill="white"/>
<path d="M395.183 186.149C395.183 215.488 369.871 239.271 338.647 239.271C307.423 239.271 282.111 215.488 282.111 186.149C282.111 156.81 307.423 133.026 338.647 133.026C369.871 133.026 395.183 156.81 395.183 186.149Z" fill="#FACC15"/>
<path fill-rule="evenodd" clip-rule="evenodd" d="M438.113 115.261L408.572 87.7332L379.032 115.261L408.572 142.788L438.113 115.261ZM408.572 85.3395L376.463 115.261L408.572 145.182L440.682 115.261L408.572 85.3395Z" fill="#002B54"/>
</g>
<path d="M38.618 153.889L45.8835 165.616H31.3525L38.618 153.889Z" fill="#93C5FD"/>
<rect x="440.036" y="70.1062" width="90.8186" height="85.4757" rx="14.4583" fill="white"/>
<path fill-rule="evenodd" clip-rule="evenodd" d="M480.89 133.839C489.945 133.839 497.223 127.063 497.223 118.774C497.223 110.485 489.945 103.708 480.89 103.708C471.836 103.708 464.558 110.485 464.558 118.774C464.558 127.063 471.836 133.839 480.89 133.839ZM480.89 138.071C492.418 138.071 501.764 129.431 501.764 118.774C501.764 108.116 492.418 99.477 480.89 99.477C469.362 99.477 460.017 108.116 460.017 118.774C460.017 129.431 469.362 138.071 480.89 138.071Z" fill="#002B54"/>
<path d="M490.377 112.666L496.382 91.7817L512.788 107.07L490.377 112.666Z" fill="#FACC15"/>
<g clip-path="url(#clip5_114_1258)">
<rect x="334.687" y="199.589" width="90.8187" height="129.483" rx="14.4583" fill="white"/>
<path fill-rule="evenodd" clip-rule="evenodd" d="M419.829 345.575C445.284 345.575 465.919 326.346 465.919 302.626C465.919 278.905 445.284 259.676 419.829 259.676C394.374 259.676 373.738 278.905 373.738 302.626C373.738 326.346 394.374 345.575 419.829 345.575ZM419.829 349.806C447.792 349.806 470.46 328.683 470.46 302.626C470.46 276.568 447.792 255.445 419.829 255.445C391.866 255.445 369.197 276.568 369.197 302.626C369.197 328.683 391.866 349.806 419.829 349.806Z" fill="#FACC15"/>
<path d="M382.367 238.191C382.367 246.19 375.353 252.674 366.7 252.674C358.048 252.674 351.034 246.19 351.034 238.191C351.034 230.193 358.048 223.709 366.7 223.709C375.353 223.709 382.367 230.193 382.367 238.191Z" fill="#002B54"/>
<path fill-rule="evenodd" clip-rule="evenodd" d="M366.7 251.405C374.61 251.405 381.004 245.479 381.004 238.191C381.004 230.903 374.61 224.978 366.7 224.978C358.79 224.978 352.396 230.903 352.396 238.191C352.396 245.479 358.79 251.405 366.7 251.405ZM366.7 252.674C375.353 252.674 382.367 246.19 382.367 238.191C382.367 230.193 375.353 223.709 366.7 223.709C358.048 223.709 351.034 230.193 351.034 238.191C351.034 246.19 358.048 252.674 366.7 252.674Z" fill="#002B54"/>
</g>
<g clip-path="url(#clip6_114_1258)">
<rect x="440.036" y="169.123" width="90.8186" height="144.716" rx="14.4583" fill="white"/>
<path d="M551.743 273.428C551.743 283.828 542.798 292.258 531.763 292.258C520.729 292.258 511.783 283.828 511.783 273.428C511.783 263.029 520.729 254.598 531.763 254.598C542.798 254.598 551.743 263.029 551.743 273.428Z" fill="white"/>
<path fill-rule="evenodd" clip-rule="evenodd" d="M531.763 290.989C542.031 290.989 550.381 283.14 550.381 273.428C550.381 263.716 542.031 255.868 531.763 255.868C521.495 255.868 513.145 263.716 513.145 273.428C513.145 283.14 521.495 290.989 531.763 290.989ZM531.763 292.258C542.798 292.258 551.743 283.828 551.743 273.428C551.743 263.029 542.798 254.598 531.763 254.598C520.729 254.598 511.783 263.029 511.783 273.428C511.783 283.828 520.729 292.258 531.763 292.258Z" fill="#002B54"/>
<path d="M515.416 220.112C515.416 234.017 503.421 245.289 488.625 245.289C473.828 245.289 461.833 234.017 461.833 220.112C461.833 206.207 473.828 194.935 488.625 194.935C503.421 194.935 515.416 206.207 515.416 220.112Z" fill="#002B54"/>
<path d="M456.838 268.562L458.119 271.997L462.02 272.071L458.911 274.268L460.041 277.748L456.838 275.671L453.635 277.748L454.765 274.268L451.655 272.071L455.557 271.997L456.838 268.562Z" fill="#FACC15"/>
<path d="M475.456 268.562L476.737 271.997L480.638 272.071L477.529 274.268L478.659 277.748L475.456 275.671L472.253 277.748L473.383 274.268L470.273 272.071L474.175 271.997L475.456 268.562Z" fill="#FACC15"/>
<path d="M494.073 268.562L495.354 271.997L499.255 272.071L496.146 274.268L497.276 277.748L494.073 275.671L490.87 277.748L492 274.268L488.891 272.071L492.792 271.997L494.073 268.562Z" fill="#FACC15"/>
<path d="M512.691 268.562L513.972 271.997L517.874 272.071L514.764 274.268L515.894 277.748L512.691 275.671L509.488 277.748L510.618 274.268L507.509 272.071L511.41 271.997L512.691 268.562Z" fill="#FACC15"/>
<path d="M531.309 268.562L532.591 271.997L536.492 272.071L533.382 274.268L534.512 277.748L531.309 275.671L528.106 277.748L529.236 274.268L526.127 272.071L530.028 271.997L531.309 268.562Z" fill="#FACC15"/>
</g>
</g>
</g>
</g>
<defs>
<filter id="filter0_dd_114_1258" x="0" y="0" width="582.188" height="397" filterUnits="userSpaceOnUse" color-interpolation-filters="sRGB">
<feFlood flood-opacity="0" result="BackgroundImageFix"/>
<feColorMatrix in="SourceAlpha" type="matrix" values="0 0 0 0 0 0 0 0 0 0 0 0 0 0 0 0 0 0 127 0" result="hardAlpha"/>
<feOffset/>
<feGaussianBlur stdDeviation="5"/>
<feColorMatrix type="matrix" values="0 0 0 0 0 0 0 0 0 0 0 0 0 0 0 0 0 0 0.07 0"/>
<feBlend mode="normal" in2="BackgroundImageFix" result="effect1_dropShadow_114_1258"/>
<feColorMatrix in="SourceAlpha" type="matrix" values="0 0 0 0 0 0 0 0 0 0 0 0 0 0 0 0 0 0 127 0" result="hardAlpha"/>
<feMorphology radius="5" operator="erode" in="SourceAlpha" result="effect2_dropShadow_114_1258"/>
<feOffset dy="20"/>
<feGaussianBlur stdDeviation="12.5"/>
<feColorMatrix type="matrix" values="0 0 0 0 0 0 0 0 0 0 0 0 0 0 0 0 0 0 0.1 0"/>
<feBlend mode="normal" in2="effect1_dropShadow_114_1258" result="effect2_dropShadow_114_1258"/>
<feBlend mode="normal" in="SourceGraphic" in2="effect2_dropShadow_114_1258" result="shape"/>
</filter>
<filter id="filter1_dd_114_1258" x="-18" y="24.6396" width="618.188" height="395.36" filterUnits="userSpaceOnUse" color-interpolation-filters="sRGB">
<feFlood flood-opacity="0" result="BackgroundImageFix"/>
<feColorMatrix in="SourceAlpha" type="matrix" values="0 0 0 0 0 0 0 0 0 0 0 0 0 0 0 0 0 0 127 0" result="hardAlpha"/>
<feOffset/>
<feGaussianBlur stdDeviation="7.5"/>
<feComposite in2="hardAlpha" operator="out"/>
<feColorMatrix type="matrix" values="0 0 0 0 0 0 0 0 0 0 0 0 0 0 0 0 0 0 0.07 0"/>
<feBlend mode="normal" in2="BackgroundImageFix" result="effect1_dropShadow_114_1258"/>
<feColorMatrix in="SourceAlpha" type="matrix" values="0 0 0 0 0 0 0 0 0 0 0 0 0 0 0 0 0 0 127 0" result="hardAlpha"/>
<feMorphology radius="12" operator="erode" in="SourceAlpha" result="effect2_dropShadow_114_1258"/>
<feOffset dy="25"/>
<feGaussianBlur stdDeviation="25"/>
<feColorMatrix type="matrix" values="0 0 0 0 0 0 0 0 0 0 0 0 0 0 0 0 0 0 0.25 0"/>
<feBlend mode="normal" in2="effect1_dropShadow_114_1258" result="effect2_dropShadow_114_1258"/>
<feBlend mode="normal" in="SourceGraphic" in2="effect2_dropShadow_114_1258" result="shape"/>
</filter>
<clipPath id="clip0_114_1258">
<rect x="20" y="10" width="542.187" height="347" rx="14.4583" fill="white"/>
</clipPath>
<clipPath id="clip1_114_1258">
<rect width="7.22917" height="7.22917" fill="white" transform="translate(31.5664 21.2052)"/>
</clipPath>
<clipPath id="clip2_114_1258">
<rect width="7.22917" height="7.22917" fill="white" transform="translate(42.4102 21.2052)"/>
</clipPath>
<clipPath id="clip3_114_1258">
<rect width="7.22917" height="7.22917" fill="white" transform="translate(53.2539 21.2052)"/>
</clipPath>
<clipPath id="clip4_114_1258">
<rect x="334.687" y="70.1062" width="90.8187" height="115.942" rx="14.4583" fill="white"/>
</clipPath>
<clipPath id="clip5_114_1258">
<rect x="334.687" y="199.589" width="90.8187" height="129.483" rx="14.4583" fill="white"/>
</clipPath>
<clipPath id="clip6_114_1258">
<rect x="440.036" y="169.123" width="90.8186" height="144.716" rx="14.4583" fill="white"/>
</clipPath>
</defs>
</svg>
