<svg width="572" height="384" viewBox="0 0 572 384" fill="none" xmlns="http://www.w3.org/2000/svg">
<g filter="url(#filter0_dd_114_1325)">
<g clip-path="url(#clip0_114_1325)">
<rect x="15" y="8" width="542.187" height="347" rx="14.4583" fill="white"/>
<g clip-path="url(#clip1_114_1325)">
<path d="M30.1811 25.8516C28.5175 25.8516 27.1689 24.503 27.1689 22.8394C27.1689 21.1758 28.5175 19.8273 30.1811 19.8273C31.8447 19.8273 33.1933 21.1758 33.1933 22.8394C33.1933 24.503 31.8447 25.8516 30.1811 25.8516Z" fill="#E11D48"/>
</g>
<g clip-path="url(#clip2_114_1325)">
<path d="M41.0248 25.8516C39.3612 25.8516 38.0127 24.503 38.0127 22.8394C38.0127 21.1758 39.3612 19.8273 41.0248 19.8273C42.6885 19.8273 44.037 21.1758 44.037 22.8394C44.037 24.503 42.6885 25.8516 41.0248 25.8516Z" fill="#FBBF24"/>
</g>
<g clip-path="url(#clip3_114_1325)">
<path d="M51.8686 25.8516C50.205 25.8516 48.8564 24.503 48.8564 22.8394C48.8564 21.1758 50.205 19.8273 51.8686 19.8273C53.5322 19.8273 54.8808 21.1758 54.8808 22.8394C54.8808 24.503 53.5322 25.8516 51.8686 25.8516Z" fill="#22C55E"/>
</g>
<g filter="url(#filter1_dd_114_1325)">
<rect x="15" y="37.6395" width="542.187" height="317.36" fill="#002B54" shape-rendering="crispEdges"/>
<path d="M15 38.0627H105.819V355H15V38.0627Z" fill="#002B54"/>
<path d="M25.8984 68.1061C25.8984 65.3017 28.3381 63.0283 31.3476 63.0283H89.4715C92.481 63.0283 94.9206 65.3017 94.9206 68.1061V68.1061C94.9206 70.9105 92.481 73.1839 89.4715 73.1839H31.3476C28.3381 73.1839 25.8984 70.9105 25.8984 68.1061V68.1061Z" fill="#93C5FD"/>
<path d="M47.6943 103.651C47.6943 102.248 48.9142 101.112 50.4189 101.112H95.8282C97.333 101.112 98.5528 102.248 98.5528 103.651V103.651C98.5528 105.053 97.333 106.189 95.8282 106.189H50.4189C48.9142 106.189 47.6943 105.053 47.6943 103.651V103.651Z" fill="white"/>
<path d="M47.6943 130.732C47.6943 129.33 48.9142 128.193 50.4189 128.193H81.7513C83.2561 128.193 84.4759 129.33 84.4759 130.732V130.732C84.4759 132.134 83.2561 133.271 81.7513 133.271H50.4189C48.9142 133.271 47.6943 132.134 47.6943 130.732V130.732Z" fill="white"/>
<path d="M47.6943 157.813C47.6943 156.411 48.9142 155.274 50.4189 155.274H89.4709C90.9757 155.274 92.1955 156.411 92.1955 157.813V157.813C92.1955 159.215 90.9757 160.352 89.4709 160.352H50.4189C48.9142 160.352 47.6943 159.215 47.6943 157.813V157.813Z" fill="white"/>
<path fill-rule="evenodd" clip-rule="evenodd" d="M33.1639 109.151C36.4242 109.151 39.0671 106.689 39.0671 103.65C39.0671 100.612 36.4242 98.1496 33.1639 98.1496C29.9037 98.1496 27.2607 100.612 27.2607 103.65C27.2607 106.689 29.9037 109.151 33.1639 109.151ZM33.1639 110.421C37.1766 110.421 40.4294 107.39 40.4294 103.65C40.4294 99.9113 37.1766 96.8801 33.1639 96.8801C29.1513 96.8801 25.8984 99.9113 25.8984 103.65C25.8984 107.39 29.1513 110.421 33.1639 110.421Z" fill="#93C5FD"/>
<path d="M134.881 68.1061C134.881 66.2365 136.507 64.7209 138.514 64.7209H191.188C193.195 64.7209 194.821 66.2365 194.821 68.1061V68.1061C194.821 69.9757 193.195 71.4913 191.188 71.4913H138.514C136.507 71.4913 134.881 69.9757 134.881 68.1061V68.1061Z" fill="#002B54"/>
<path fill-rule="evenodd" clip-rule="evenodd" d="M231.375 204.597C231.402 202.183 233.46 200.128 236.104 200.128C237.728 200.128 238.922 200.877 239.684 201.582C239.896 201.778 240.078 201.974 240.23 202.154C240.383 201.974 240.565 201.778 240.777 201.582C241.539 200.877 242.733 200.128 244.356 200.128C247.001 200.128 249.058 202.183 249.085 204.597L249.085 204.597C249.135 209.304 245.076 212.561 240.997 215.142C240.771 215.285 240.504 215.361 240.23 215.361C239.957 215.361 239.69 215.285 239.464 215.142C235.384 212.561 231.325 209.304 231.375 204.597L231.375 204.597ZM240.839 203.587C240.723 203.801 240.488 203.936 240.23 203.936C239.973 203.936 239.738 203.801 239.622 203.587C239.622 203.587 239.621 203.586 239.621 203.586C239.62 203.584 239.619 203.582 239.617 203.578C239.616 203.576 239.615 203.574 239.613 203.572C239.606 203.559 239.593 203.537 239.575 203.508C239.54 203.45 239.484 203.363 239.408 203.258C239.256 203.046 239.027 202.764 238.724 202.483C238.114 201.918 237.245 201.397 236.104 201.397C234.257 201.397 232.757 202.844 232.738 204.61M240.839 203.587C240.839 203.587 240.839 203.586 240.839 203.586C240.841 203.583 240.843 203.579 240.847 203.572C240.855 203.559 240.868 203.537 240.885 203.508C240.921 203.45 240.977 203.363 241.052 203.258C241.205 203.046 241.433 202.764 241.737 202.483C242.347 201.918 243.216 201.397 244.356 201.397C246.204 201.397 247.703 202.844 247.723 204.61C247.765 208.576 244.347 211.488 240.231 214.092L240.23 214.092L240.23 214.092C236.114 211.488 232.695 208.576 232.738 204.61" fill="white"/>
<path d="M134.881 207.745C134.881 205.875 136.507 204.36 138.514 204.36H163.035C165.041 204.36 166.667 205.875 166.667 207.745V207.745C166.667 209.614 165.041 211.13 163.035 211.13H138.514C136.507 211.13 134.881 209.614 134.881 207.745V207.745Z" fill="#002B54"/>
<path d="M173.933 207.745C173.933 205.875 175.559 204.36 177.565 204.36H218.434C220.44 204.36 222.067 205.875 222.067 207.745V207.745C222.067 209.614 220.44 211.13 218.434 211.13H177.565C175.559 211.13 173.933 209.614 173.933 207.745V207.745Z" fill="#002B54"/>
<path d="M134.881 240.75C134.881 239.348 136.101 238.211 137.605 238.211H175.749C177.254 238.211 178.474 239.348 178.474 240.75V240.75C178.474 242.152 177.254 243.289 175.749 243.289H137.605C136.101 243.289 134.881 242.152 134.881 240.75V240.75Z" fill="white"/>
<path d="M134.881 252.598C134.881 251.196 136.101 250.059 137.605 250.059H196.183C197.688 250.059 198.908 251.196 198.908 252.598V252.598C198.908 254.001 197.688 255.137 196.183 255.137H137.605C136.101 255.137 134.881 254.001 134.881 252.598V252.598Z" fill="white"/>
<path d="M185.739 240.75C185.739 239.348 186.959 238.211 188.464 238.211H233.873C235.378 238.211 236.598 239.348 236.598 240.75V240.75C236.598 242.152 235.378 243.289 233.873 243.289H188.464C186.959 243.289 185.739 242.152 185.739 240.75V240.75Z" fill="white"/>
<path d="M134.881 101.112C134.881 99.7095 136.101 98.5728 137.605 98.5728H175.749C177.254 98.5728 178.474 99.7095 178.474 101.112V101.112C178.474 102.514 177.254 103.651 175.749 103.651H137.605C136.101 103.651 134.881 102.514 134.881 101.112V101.112Z" fill="white"/>
<path d="M134.881 112.96C134.881 111.558 136.101 110.421 137.605 110.421H231.603C233.107 110.421 234.327 111.558 234.327 112.96V112.96C234.327 114.362 233.107 115.499 231.603 115.499H137.605C136.101 115.499 134.881 114.362 134.881 112.96V112.96Z" fill="white"/>
<path d="M185.739 101.112C185.739 99.7095 186.959 98.5728 188.464 98.5728H291.997C293.502 98.5728 294.722 99.7095 294.722 101.112V101.112C294.722 102.514 293.502 103.651 291.997 103.651H188.464C186.959 103.651 185.739 102.514 185.739 101.112V101.112Z" fill="white"/>
<path fill-rule="evenodd" clip-rule="evenodd" d="M39.5203 125.231H27.7138V136.233H39.5203V125.231ZM26.3516 123.962V137.502H40.8826V123.962H26.3516Z" fill="#60A5FA"/>
<g clip-path="url(#clip4_114_1325)">
<rect x="329.687" y="68.1062" width="90.8187" height="115.942" rx="14.4583" fill="white"/>
<path d="M390.184 184.149C390.184 213.487 364.872 237.271 333.648 237.271C302.424 237.271 277.112 213.487 277.112 184.149C277.112 154.81 302.424 131.026 333.648 131.026C364.872 131.026 390.184 154.81 390.184 184.149Z" fill="#FACC15"/>
<path fill-rule="evenodd" clip-rule="evenodd" d="M433.113 113.261L403.572 85.7332L374.032 113.261L403.572 140.788L433.113 113.261ZM403.572 83.3395L371.463 113.261L403.572 143.182L435.682 113.261L403.572 83.3395Z" fill="#002B54"/>
</g>
<path d="M33.6171 151.889L40.8826 163.616H26.3516L33.6171 151.889Z" fill="#93C5FD"/>
<rect x="435.036" y="68.1062" width="90.8186" height="85.4757" rx="14.4583" fill="white"/>
<path fill-rule="evenodd" clip-rule="evenodd" d="M475.89 131.839C484.945 131.839 492.223 125.063 492.223 116.774C492.223 108.485 484.945 101.709 475.89 101.709C466.836 101.709 459.558 108.485 459.558 116.774C459.558 125.063 466.836 131.839 475.89 131.839ZM475.89 136.071C487.418 136.071 496.764 127.431 496.764 116.774C496.764 106.117 487.418 97.4771 475.89 97.4771C464.362 97.4771 455.017 106.117 455.017 116.774C455.017 127.431 464.362 136.071 475.89 136.071Z" fill="#002B54"/>
<path d="M485.377 110.666L491.382 89.7817L507.788 105.07L485.377 110.666Z" fill="#FACC15"/>
<g clip-path="url(#clip5_114_1325)">
<rect x="329.687" y="197.589" width="90.8187" height="129.483" rx="14.4583" fill="white"/>
<path fill-rule="evenodd" clip-rule="evenodd" d="M414.829 343.575C440.284 343.575 460.919 324.346 460.919 300.625C460.919 276.905 440.284 257.676 414.829 257.676C389.374 257.676 368.738 276.905 368.738 300.625C368.738 324.346 389.374 343.575 414.829 343.575ZM414.829 347.806C442.792 347.806 465.46 326.683 465.46 300.625C465.46 274.568 442.792 253.445 414.829 253.445C386.866 253.445 364.197 274.568 364.197 300.625C364.197 326.683 386.866 347.806 414.829 347.806Z" fill="#FACC15"/>
<path d="M377.367 236.191C377.367 244.19 370.353 250.674 361.7 250.674C353.048 250.674 346.034 244.19 346.034 236.191C346.034 228.193 353.048 221.709 361.7 221.709C370.353 221.709 377.367 228.193 377.367 236.191Z" fill="#002B54"/>
<path fill-rule="evenodd" clip-rule="evenodd" d="M361.7 249.405C369.61 249.405 376.004 243.479 376.004 236.191C376.004 228.903 369.61 222.978 361.7 222.978C353.79 222.978 347.396 228.903 347.396 236.191C347.396 243.479 353.79 249.405 361.7 249.405ZM361.7 250.674C370.353 250.674 377.367 244.19 377.367 236.191C377.367 228.193 370.353 221.709 361.7 221.709C353.048 221.709 346.034 228.193 346.034 236.191C346.034 244.19 353.048 250.674 361.7 250.674Z" fill="#002B54"/>
</g>
<g clip-path="url(#clip6_114_1325)">
<rect x="435.036" y="167.123" width="90.8186" height="144.716" rx="14.4583" fill="white"/>
<path d="M546.743 271.428C546.743 281.828 537.798 290.258 526.763 290.258C515.729 290.258 506.783 281.828 506.783 271.428C506.783 261.029 515.729 252.598 526.763 252.598C537.798 252.598 546.743 261.029 546.743 271.428Z" fill="white"/>
<path fill-rule="evenodd" clip-rule="evenodd" d="M526.763 288.989C537.031 288.989 545.381 281.14 545.381 271.428C545.381 261.716 537.031 253.868 526.763 253.868C516.495 253.868 508.145 261.716 508.145 271.428C508.145 281.14 516.495 288.989 526.763 288.989ZM526.763 290.258C537.798 290.258 546.743 281.828 546.743 271.428C546.743 261.029 537.798 252.598 526.763 252.598C515.729 252.598 506.783 261.029 506.783 271.428C506.783 281.828 515.729 290.258 526.763 290.258Z" fill="#002B54"/>
<path d="M510.415 218.112C510.415 232.017 498.42 243.289 483.624 243.289C468.827 243.289 456.832 232.017 456.832 218.112C456.832 204.207 468.827 192.935 483.624 192.935C498.42 192.935 510.415 204.207 510.415 218.112Z" fill="#002B54"/>
<path d="M451.837 266.562L453.118 269.997L457.019 270.071L453.91 272.268L455.04 275.748L451.837 273.671L448.634 275.748L449.764 272.268L446.654 270.071L450.556 269.997L451.837 266.562Z" fill="#FACC15"/>
<path d="M470.455 266.562L471.736 269.997L475.637 270.071L472.528 272.268L473.658 275.748L470.455 273.671L467.252 275.748L468.382 272.268L465.272 270.071L469.174 269.997L470.455 266.562Z" fill="#FACC15"/>
<path d="M489.073 266.562L490.354 269.997L494.255 270.071L491.146 272.268L492.276 275.748L489.073 273.671L485.87 275.748L487 272.268L483.891 270.071L487.792 269.997L489.073 266.562Z" fill="#FACC15"/>
<path d="M507.69 266.562L508.971 269.997L512.873 270.071L509.763 272.268L510.893 275.748L507.69 273.671L504.487 275.748L505.617 272.268L502.508 270.071L506.409 269.997L507.69 266.562Z" fill="#FACC15"/>
<path d="M526.308 266.562L527.59 269.997L531.491 270.071L528.381 272.268L529.511 275.748L526.308 273.671L523.105 275.748L524.235 272.268L521.126 270.071L525.027 269.997L526.308 266.562Z" fill="#FACC15"/>
</g>
</g>
</g>
</g>
<defs>
<filter id="filter0_dd_114_1325" x="0.541669" y="0.770834" width="571.104" height="383.146" filterUnits="userSpaceOnUse" color-interpolation-filters="sRGB">
<feFlood flood-opacity="0" result="BackgroundImageFix"/>
<feColorMatrix in="SourceAlpha" type="matrix" values="0 0 0 0 0 0 0 0 0 0 0 0 0 0 0 0 0 0 127 0" result="hardAlpha"/>
<feOffset/>
<feGaussianBlur stdDeviation="3.61458"/>
<feColorMatrix type="matrix" values="0 0 0 0 0 0 0 0 0 0 0 0 0 0 0 0 0 0 0.07 0"/>
<feBlend mode="normal" in2="BackgroundImageFix" result="effect1_dropShadow_114_1325"/>
<feColorMatrix in="SourceAlpha" type="matrix" values="0 0 0 0 0 0 0 0 0 0 0 0 0 0 0 0 0 0 127 0" result="hardAlpha"/>
<feMorphology radius="3.61458" operator="erode" in="SourceAlpha" result="effect2_dropShadow_114_1325"/>
<feOffset dy="14.4583"/>
<feGaussianBlur stdDeviation="9.03646"/>
<feColorMatrix type="matrix" values="0 0 0 0 0 0 0 0 0 0 0 0 0 0 0 0 0 0 0.1 0"/>
<feBlend mode="normal" in2="effect1_dropShadow_114_1325" result="effect2_dropShadow_114_1325"/>
<feBlend mode="normal" in="SourceGraphic" in2="effect2_dropShadow_114_1325" result="shape"/>
</filter>
<filter id="filter1_dd_114_1325" x="-12.4708" y="26.7958" width="597.129" height="373.748" filterUnits="userSpaceOnUse" color-interpolation-filters="sRGB">
<feFlood flood-opacity="0" result="BackgroundImageFix"/>
<feColorMatrix in="SourceAlpha" type="matrix" values="0 0 0 0 0 0 0 0 0 0 0 0 0 0 0 0 0 0 127 0" result="hardAlpha"/>
<feOffset/>
<feGaussianBlur stdDeviation="5.42187"/>
<feComposite in2="hardAlpha" operator="out"/>
<feColorMatrix type="matrix" values="0 0 0 0 0 0 0 0 0 0 0 0 0 0 0 0 0 0 0.07 0"/>
<feBlend mode="normal" in2="BackgroundImageFix" result="effect1_dropShadow_114_1325"/>
<feColorMatrix in="SourceAlpha" type="matrix" values="0 0 0 0 0 0 0 0 0 0 0 0 0 0 0 0 0 0 127 0" result="hardAlpha"/>
<feMorphology radius="8.675" operator="erode" in="SourceAlpha" result="effect2_dropShadow_114_1325"/>
<feOffset dy="18.0729"/>
<feGaussianBlur stdDeviation="18.0729"/>
<feColorMatrix type="matrix" values="0 0 0 0 0 0 0 0 0 0 0 0 0 0 0 0 0 0 0.25 0"/>
<feBlend mode="normal" in2="effect1_dropShadow_114_1325" result="effect2_dropShadow_114_1325"/>
<feBlend mode="normal" in="SourceGraphic" in2="effect2_dropShadow_114_1325" result="shape"/>
</filter>
<clipPath id="clip0_114_1325">
<rect x="15" y="8" width="542.187" height="347" rx="14.4583" fill="white"/>
</clipPath>
<clipPath id="clip1_114_1325">
<rect width="7.22917" height="7.22917" fill="white" transform="translate(26.5664 19.2052)"/>
</clipPath>
<clipPath id="clip2_114_1325">
<rect width="7.22917" height="7.22917" fill="white" transform="translate(37.4102 19.2052)"/>
</clipPath>
<clipPath id="clip3_114_1325">
<rect width="7.22917" height="7.22917" fill="white" transform="translate(48.2539 19.2052)"/>
</clipPath>
<clipPath id="clip4_114_1325">
<rect x="329.687" y="68.1062" width="90.8187" height="115.942" rx="14.4583" fill="white"/>
</clipPath>
<clipPath id="clip5_114_1325">
<rect x="329.687" y="197.589" width="90.8187" height="129.483" rx="14.4583" fill="white"/>
</clipPath>
<clipPath id="clip6_114_1325">
<rect x="435.036" y="167.123" width="90.8186" height="144.716" rx="14.4583" fill="white"/>
</clipPath>
</defs>
</svg>
