<svg width="37" height="37" viewBox="0 0 37 37" fill="none" xmlns="http://www.w3.org/2000/svg">
<path d="M9.85405 14.6772C3.58785 15.1226 3.60321 24.1994 9.85405 24.6448H24.6902C26.4871 24.6601 28.2226 23.9844 29.5588 22.7711C33.9513 18.9315 31.6015 11.2523 25.8114 10.5151C23.738 -1.98659 5.63052 2.75916 9.9155 14.6772" stroke="white" stroke-width="1.5" stroke-miterlimit="10" stroke-linecap="round" stroke-linejoin="round"/>
<path d="M18.5 24.6448V29.2523" stroke="white" stroke-width="1.5" stroke-miterlimit="10" stroke-linecap="round" stroke-linejoin="round"/>
<path d="M18.5004 35.3955C20.1968 35.3955 21.572 34.0203 21.572 32.3239C21.572 30.6274 20.1968 29.2522 18.5004 29.2522C16.8039 29.2522 15.4287 30.6274 15.4287 32.3239C15.4287 34.0203 16.8039 35.3955 18.5004 35.3955Z" stroke="white" stroke-width="1.5" stroke-miterlimit="10" stroke-linecap="round" stroke-linejoin="round"/>
<path d="M27.7156 32.324H21.5723" stroke="white" stroke-width="1.5" stroke-miterlimit="10" stroke-linecap="round" stroke-linejoin="round"/>
<path d="M15.4285 32.324H9.28516" stroke="white" stroke-width="1.5" stroke-miterlimit="10" stroke-linecap="round" stroke-linejoin="round"/>
</svg>
