<svg width="17" height="17" viewBox="0 0 17 17" fill="none" xmlns="http://www.w3.org/2000/svg">
<path d="M14.5 4.48665C12.28 4.26665 10.0467 4.15332 7.82 4.15332C6.5 4.15332 5.18 4.21999 3.86 4.35332L2.5 4.48665" stroke="#C32B43" stroke-linecap="round" stroke-linejoin="round"/>
<path d="M6.1665 3.81337L6.31317 2.94004C6.41984 2.30671 6.49984 1.83337 7.6265 1.83337H9.37317C10.4998 1.83337 10.5865 2.33337 10.6865 2.94671L10.8332 3.81337" stroke="#C32B43" stroke-linecap="round" stroke-linejoin="round"/>
<path d="M13.0664 6.59338L12.6331 13.3067C12.5598 14.3534 12.4998 15.1667 10.6398 15.1667H6.35977C4.49977 15.1667 4.43977 14.3534 4.36644 13.3067L3.93311 6.59338" stroke="#C32B43" stroke-linecap="round" stroke-linejoin="round"/>
<path d="M7.38672 11.5H9.60672" stroke="#C32B43" stroke-linecap="round" stroke-linejoin="round"/>
<path d="M6.8335 8.83337H10.1668" stroke="#C32B43" stroke-linecap="round" stroke-linejoin="round"/>
</svg>
