<svg width="19" height="19" viewBox="0 0 19 19" fill="none" xmlns="http://www.w3.org/2000/svg">
<path d="M17.0909 9.45479C17.0909 6.72752 15.625 4.23888 13.2727 2.87524C10.8864 1.47752 7.98866 1.47752 5.63639 2.87524C3.25002 4.23888 1.8182 6.72752 1.8182 9.45479C1.8182 12.2162 3.25002 14.7048 5.63639 16.0684C7.98866 17.4662 10.8864 17.4662 13.2727 16.0684C15.625 14.7048 17.0909 12.2162 17.0909 9.45479ZM0.727295 9.45479C0.727295 6.35252 2.36366 3.48888 5.09093 1.9207C7.78411 0.352516 11.0909 0.352516 13.8182 1.9207C16.5114 3.48888 18.1818 6.35252 18.1818 9.45479C18.1818 12.5912 16.5114 15.4548 13.8182 17.023C11.0909 18.5912 7.78411 18.5912 5.09093 17.023C2.36366 15.4548 0.727295 12.5912 0.727295 9.45479ZM6.3182 11.8412C6.93184 12.5571 7.95457 13.273 9.45457 13.273C10.9205 13.273 11.9773 12.5571 12.5568 11.8412C12.7614 11.6025 13.1023 11.6025 13.3409 11.773C13.5796 11.9775 13.5796 12.3184 13.4091 12.5571C12.625 13.4434 11.3296 14.3639 9.45457 14.3639C7.54548 14.3639 6.25002 13.4434 5.46593 12.5571C5.29548 12.3184 5.29548 11.9775 5.53411 11.773C5.77275 11.6025 6.11366 11.6025 6.3182 11.8412ZM5.90911 7.81843C5.90911 7.37524 6.28411 7.00024 6.7273 7.00024C7.17048 7.00024 7.54548 7.37524 7.54548 7.81843C7.54548 8.2957 7.17048 8.63661 6.7273 8.63661C6.28411 8.63661 5.90911 8.2957 5.90911 7.81843ZM12.1818 7.00024C12.625 7.00024 13 7.37524 13 7.81843C13 8.2957 12.625 8.63661 12.1818 8.63661C11.7387 8.63661 11.3637 8.2957 11.3637 7.81843C11.3637 7.37524 11.7387 7.00024 12.1818 7.00024Z" fill="#8D8D8D"/>
</svg>
