<svg width="20" height="17" viewBox="0 0 20 17" fill="none" xmlns="http://www.w3.org/2000/svg">
<path d="M17.4545 1.90909H2.18182C1.56818 1.90909 1.09091 2.42045 1.09091 3V13.9091C1.09091 14.5227 1.56818 15 2.18182 15H17.4545C18.0341 15 18.5455 14.5227 18.5455 13.9091V3C18.5455 2.42045 18.0341 1.90909 17.4545 1.90909ZM2.18182 0.818181H17.4545C18.6477 0.818181 19.6364 1.80682 19.6364 3V13.9091C19.6364 15.1364 18.6477 16.0909 17.4545 16.0909H2.18182C0.954545 16.0909 0 15.1364 0 13.9091V3C0 1.80682 0.954545 0.818181 2.18182 0.818181ZM10.3636 5.18182C10.6364 5.18182 10.9091 5.45455 10.9091 5.72727V11.1818C10.9091 11.4886 10.6364 11.7273 10.3636 11.7273C10.0568 11.7273 9.81818 11.4886 9.81818 11.1818V5.72727C9.81818 5.45455 10.0568 5.18182 10.3636 5.18182ZM12 5.72727C12 5.45455 12.2386 5.18182 12.5455 5.18182H15.8182C16.0909 5.18182 16.3636 5.45455 16.3636 5.72727C16.3636 6.03409 16.0909 6.27273 15.8182 6.27273H13.0909V7.90909H15.2727C15.5455 7.90909 15.8182 8.18182 15.8182 8.45455C15.8182 8.76136 15.5455 9 15.2727 9H13.0909V11.1818C13.0909 11.4886 12.8182 11.7273 12.5455 11.7273C12.2386 11.7273 12 11.4886 12 11.1818V8.45455V5.72727ZM4.36364 8.45455C4.36364 9.68182 5.31818 10.6364 6.54545 10.6364C6.92045 10.6364 7.29545 10.5341 7.63636 10.3636V9.27273H6.27273C5.96591 9.27273 5.72727 9.03409 5.72727 8.72727C5.72727 8.45455 5.96591 8.18182 6.27273 8.18182H8.18182C8.45455 8.18182 8.72727 8.45455 8.72727 8.72727V10.6364C8.72727 10.8068 8.625 10.9773 8.48864 11.0795C7.94318 11.4886 7.26136 11.7273 6.54545 11.7273C4.73864 11.7273 3.27273 10.2614 3.27273 8.45455C3.27273 6.64773 4.73864 5.18182 6.54545 5.18182C7.26136 5.18182 7.94318 5.45455 8.48864 5.86364C8.72727 6.03409 8.79545 6.375 8.59091 6.61364C8.42045 6.85227 8.07955 6.92045 7.84091 6.71591C7.46591 6.44318 7.02273 6.27273 6.54545 6.27273C5.31818 6.27273 4.36364 7.26136 4.36364 8.45455Z" fill="#8D8D8D"/>
</svg>
