<svg width="16" height="19" viewBox="0 0 16 19" fill="none" xmlns="http://www.w3.org/2000/svg">
<path d="M13.2273 3.04545C12.2386 2.05682 10.6363 2.05682 9.64771 3.04545L3.10225 9.59091C1.49998 11.1932 1.49998 13.75 3.10225 15.3523C4.70452 16.9545 7.26134 16.9545 8.86361 15.3523L14.0454 10.1705C14.25 9.96591 14.625 9.96591 14.8295 10.1705C15.0341 10.375 15.0341 10.75 14.8295 10.9545L9.64771 16.1364C7.63634 18.1477 4.32952 18.1477 2.31816 16.1364C0.306796 14.0909 0.306796 10.8182 2.31816 8.80682L8.86361 2.26136C10.2954 0.863636 12.5795 0.863636 14.0113 2.26136C15.4091 3.69318 15.4091 5.97727 14.0113 7.40909L7.73861 13.6818C6.78407 14.6364 5.1818 14.5341 4.32952 13.4773C3.61361 12.5568 3.6818 11.2614 4.49998 10.4432L9.6818 5.26136C9.88634 5.05682 10.2613 5.05682 10.4659 5.26136C10.6704 5.46591 10.6704 5.84091 10.4659 6.04545L5.28407 11.2273C4.84089 11.6364 4.8068 12.3182 5.1818 12.7955C5.62498 13.3409 6.47725 13.4091 6.95452 12.8977L13.2273 6.625C14.2159 5.63636 14.2159 4.03409 13.2273 3.04545Z" fill="#8D8D8D"/>
</svg>
