<svg
          width="126"
          height="33"
          viewBox="0 0 126 33"
          fill="none"
          xmlns="http://www.w3.org/2000/svg"
        >
          <path
            fill-rule="evenodd"
            clip-rule="evenodd"
            d="M0.80957 16.7674L0.811114 16.6071L0.814298 16.4467L0.81913 16.2863L0.825602 16.1259L0.83373 15.9655L0.843498 15.8051L0.854922 15.6448L0.867986 15.4845L0.882706 15.3242L0.899074 15.164L0.91709 15.004L0.936746 14.844L0.958058 14.6841L0.981018 14.5245L1.00562 14.3649L1.03187 14.2057L1.05976 14.0465L1.08929 13.8876L1.12047 13.7289L1.15328 13.5704L1.18774 13.4121L1.22382 13.2542L1.26155 13.0966L1.30089 12.9393L1.34187 12.7823L1.38447 12.6256L1.42871 12.4693L1.47455 12.3133L1.52202 12.1578L1.57109 12.0027L1.62178 11.848L1.67407 11.6937L1.72797 11.5398L1.78346 11.3865L1.84055 11.2336L1.89922 11.0812L1.95948 10.9293L2.02132 10.778L2.08474 10.6273L2.14972 10.477L2.21627 10.3273L2.28439 10.1783L2.35405 10.0299L2.42527 9.88207L2.49803 9.73487L2.57232 9.58839L2.64815 9.44255L2.7255 9.29735L2.80436 9.15295L2.88474 9.00919L2.96663 8.86615L3.05 8.72391L3.13487 8.58239L3.22123 8.44167L3.30906 8.30175L3.39835 8.16263L3.48911 8.02439L3.58133 7.88687L3.67499 7.75031L3.77008 7.61455L3.8666 7.47967L3.96454 7.34575L4.06389 7.21263L4.16464 7.08055L4.26679 6.94935L4.37032 6.81906L4.47523 6.68978L4.5815 6.56148L4.68912 6.43417L4.7981 6.30785L4.90841 6.18257L5.02004 6.05832L5.13299 5.93511L5.24726 5.81297L5.36281 5.69189L5.47965 5.57191L5.59776 5.45302L5.71714 5.33525L5.83777 5.2186L5.95964 5.10309L6.08275 4.98873L6.20707 4.87553L6.33259 4.76352L6.45932 4.65269L6.58723 4.54305L6.71631 4.43463L6.84655 4.32744L6.97795 4.22148L7.11047 4.11677L7.24413 4.01331L7.37885 3.91113L7.51477 3.81023L7.65173 3.71063L7.78973 3.61233L7.92877 3.51535L8.06893 3.41969L8.21005 3.32537L8.35221 3.2324L8.49541 3.14078L8.63965 3.05054L8.78477 2.96168L8.93093 2.8742L9.07797 2.78813L9.22597 2.70346L9.37493 2.62021L9.52477 2.5384L9.67549 2.45801L9.82709 2.37909L9.97957 2.30161L10.1329 2.2256L10.2871 2.15106L10.4421 2.07801L10.5979 2.00645L10.7545 1.93639L10.9119 1.86784L11.0701 1.80081L11.2289 1.7353L11.3885 1.67133L11.5489 1.60889L11.7099 1.54801L11.8716 1.48867L12.034 1.43091L12.197 1.37471L12.3607 1.32009L12.5249 1.26705L12.6898 1.21561L12.8553 1.16576L13.0214 1.11752L13.188 1.07089L13.3552 1.02586L13.5229 0.982462L13.691 0.940693L13.8596 0.900566L14.0288 0.862062L14.1985 0.825213L14.3685 0.790006L14.5389 0.756454L14.7098 0.724566L14.8811 0.694333L15.0528 0.665773L15.2248 0.638885L15.3971 0.613669L15.5697 0.590141L15.7427 0.568293L15.916 0.548133L16.0895 0.529653L16.2633 0.512885L16.4373 0.497805L16.6115 0.484422L16.7859 0.47275L17.7238 0.419189L17.7773 4.93813L17.808 4.93777L17.9375 4.93759L18.067 4.93868L18.1965 4.94104L18.3262 4.94468L18.4558 4.94959L18.5855 4.95577L18.7152 4.96323L18.8449 4.97197L18.9745 4.98198L19.1041 4.99328L19.2337 5.00585L19.3632 5.01971L19.4925 5.03484L19.6219 5.05125L19.7511 5.06893L19.8802 5.08789L20.0092 5.10814L20.1381 5.12966L20.2667 5.15245L20.3953 5.17653L20.5236 5.20187L20.6517 5.22849L20.7797 5.25638L20.9073 5.28554L21.0348 5.31597L21.1621 5.34766L21.289 5.38063L21.4157 5.41485L21.5421 5.45034L21.6682 5.48709L21.794 5.52509L21.9194 5.56434L22.0445 5.60485L22.1693 5.64661L22.2937 5.68961L22.4177 5.73386L22.5414 5.77934L22.6646 5.82607L22.7874 5.87402L22.9098 5.92321L23.0317 5.97363L23.1532 6.02526L23.2742 6.07812L23.3948 6.13219L23.5148 6.18747L23.6343 6.24395L23.7533 6.30164L23.8718 6.36053L23.9897 6.42061L24.1071 6.48187L24.2239 6.54432L24.3401 6.60795L24.4557 6.67275L24.5708 6.73872L24.6852 6.80585L24.7989 6.87415L24.9121 6.94359L25.0245 7.01415L25.1363 7.08591L25.2474 7.15871L25.3578 7.23271L25.4676 7.30783L25.5765 7.38399L25.6849 7.46135L25.7924 7.53975L25.8991 7.61927L26.0052 7.69991L26.1104 7.78159L26.2148 7.86439L26.3185 7.94815L26.4213 8.03303L26.5233 8.11903L26.6245 8.20599L26.7249 8.29399L26.8245 8.38303L26.923 8.47311L27.0208 8.56423L27.1177 8.65631L27.2137 8.74935L27.3087 8.84343L27.4029 8.93847L27.4961 9.03455L27.5884 9.13151L27.6797 9.22943L27.7701 9.32831L27.8594 9.42815L27.9478 9.52887L28.0353 9.63055L28.1216 9.73311L28.2071 9.83655L28.2915 9.94095L28.3749 10.0461L28.4572 10.1522L28.5385 10.2592L28.6187 10.367L28.6978 10.4757L28.7759 10.5852L28.8528 10.6955L28.9288 10.8065L29.0036 10.9185L29.0772 11.0312L29.1498 11.1447L29.2212 11.2589L29.2915 11.3739L29.3606 11.4897L29.4286 11.6061L29.4954 11.7233L29.5611 11.8413L29.6256 11.9599L29.6888 12.0792L29.7509 12.1992L29.8118 12.3198L29.8715 12.4411L29.93 12.5631L29.9872 12.6857L30.0432 12.8089L30.0981 12.9327L30.1516 13.0571L30.2038 13.1821L30.2549 13.3077L30.3046 13.4338L30.3531 13.5605L30.4003 13.6877L30.4462 13.8154L30.4909 13.9438L30.5342 14.0725L30.5763 14.2018L30.617 14.3314L30.6565 14.4616L30.6945 14.5922L30.7313 14.7233L30.7668 14.8548L30.8009 14.9867L30.8337 15.1189L30.8652 15.2517L30.8953 15.3847L30.924 15.5181L30.9514 15.6518L30.9774 15.786L31.0021 15.9204L31.0254 16.0551L31.0473 16.1901L31.0679 16.3253L31.0871 16.461L31.1048 16.5967L31.1213 16.7328L31.1363 16.869L31.1499 17.0055L31.1621 17.1421L31.173 17.279L31.1824 17.4161L31.1905 17.5533L31.1971 17.6905L31.2024 17.8281L31.2061 17.9656L31.2086 18.1033L31.2096 18.241L31.2092 18.3789L31.2073 18.5168L31.2041 18.6548L31.1994 18.7927L31.1933 18.9307L31.1859 19.0687L31.1769 19.2067L31.1666 19.3447L31.1549 19.4826L31.1417 19.6206L31.1271 19.7584L31.111 19.8961L31.0936 20.0338L31.0748 20.1713L31.0544 20.3087L31.0328 20.446L31.0096 20.5831L30.9851 20.7201L30.9592 20.8569L30.9318 20.9935L30.903 21.1299L30.8728 21.2661L30.8412 21.4021L30.8082 21.5377L30.7737 21.6732L30.7379 21.8083L30.7007 21.9432L30.6621 22.0777L30.622 22.212L30.5806 22.346L30.5377 22.4795L30.4936 22.6128L30.448 22.7456L30.4009 22.8781L30.3526 23.0102L30.3029 23.1418L30.2517 23.2729L30.1992 23.4037L30.1454 23.5341L30.0902 23.6639L30.0337 23.7933L29.9757 23.9221L29.9164 24.0506L29.8558 24.1784L29.7939 24.3057L29.7305 24.4325L29.666 24.5586L29.6 24.6843L29.5328 24.8093L29.4641 24.9338L29.3943 25.0575L29.3231 25.1807L29.2506 25.3033L29.1768 25.4251L29.1018 25.5464L29.0254 25.6669L28.9478 25.7867L28.869 25.9058L28.7888 26.0242L28.7075 26.1419L28.6249 26.2589L28.541 26.375L28.4559 26.4905L28.3696 26.6051L28.282 26.7189L28.1933 26.8319L28.1034 26.9442L28.0123 27.0555L27.92 27.166L27.8265 27.2757L27.7318 27.3845L27.636 27.4924L27.539 27.5994L27.4409 27.7056L27.3417 27.8108L27.2413 27.9151L27.1399 28.0184L27.0373 28.1208L26.9336 28.2222L26.8289 28.3227L26.723 28.4222L26.6161 28.5207L26.5081 28.6182L26.3991 28.7146L26.2891 28.8101L26.178 28.9046L26.0659 28.9979L25.9528 29.0901L25.8387 29.1814L25.7236 29.2716L25.6075 29.3606L25.4905 29.4486L25.3725 29.5354L25.2536 29.6212L25.1337 29.7057L25.0129 29.7893L24.8912 29.8716L24.7686 29.9527L24.6451 30.0327L24.5208 30.1116L24.3956 30.1892L24.2695 30.2657L24.1425 30.3409L24.0148 30.415L23.8863 30.4878L23.7568 30.5593L23.6268 30.6297L23.4958 30.6987L23.3641 30.7666L23.2316 30.8332L23.0984 30.8985L22.9645 30.9625L22.8299 31.0253L22.6945 31.0867L22.5585 31.1469L22.4218 31.2057L22.2845 31.2632L22.1465 31.3194L22.0078 31.3743L21.8685 31.4278L21.7286 31.4801L21.5881 31.5309L21.447 31.5804L21.3054 31.6285L21.1633 31.6753L21.0205 31.7206L20.8772 31.7646L20.7334 31.8073L20.5892 31.8485L20.4444 31.8883L20.2992 31.9268L20.1534 31.9637L20.0073 31.9993L19.8608 32.0336L19.7137 32.0663L19.5664 32.0977L19.4186 32.1276L19.2705 32.1561L19.122 32.1831L18.9732 32.2086L18.824 32.2328L18.6745 32.2555L18.5247 32.2767L18.3747 32.2965L18.2244 32.3148L18.0737 32.3316L17.9229 32.3469L17.7719 32.3609L17.6207 32.3733L17.4693 32.3842L17.3176 32.3937L17.1658 32.4017L17.0139 32.4081L16.8619 32.4131L16.7097 32.4166L16.5574 32.4186L16.405 32.4192L16.2526 32.4182L16.1001 32.4158L15.9476 32.4118L15.795 32.4063L15.6425 32.3994L15.4899 32.3909L15.3374 32.381L15.1849 32.3695L15.0325 32.3566L14.8801 32.3421L14.7277 32.3262L14.5756 32.3087L14.4235 32.2897L14.2715 32.2693L14.1197 32.2473L13.9681 32.2238L13.8166 32.1989L13.6653 32.1725L13.5142 32.1445L13.3634 32.115L13.2128 32.0842L13.0624 32.0517L12.9123 32.0177L12.7625 31.9824L12.613 31.9455L12.4638 31.9071L12.3149 31.8673L12.1665 31.826L12.0183 31.7832L11.8705 31.739L11.7231 31.6932L11.5761 31.646L11.4296 31.5973L11.2834 31.5472L11.1377 31.4956L10.9925 31.4426L10.8478 31.3882L10.7036 31.3322L10.5599 31.2749L10.4167 31.2161L10.2741 31.1558L10.132 31.0942L9.99045 31.0312L9.84949 30.9667L9.70917 30.9008L9.56949 30.8335L9.43045 30.7648L9.29197 30.6947L9.15421 30.6233L9.01717 30.5504L8.88069 30.4762L8.74501 30.4006L8.61005 30.3237L8.47581 30.2453L8.34229 30.1657L8.20957 30.0847L8.07757 30.0023L7.94637 29.9187L7.81605 29.8337L7.68645 29.7474L7.55773 29.6597L7.42989 29.5709L7.30285 29.4807L7.1767 29.3892L7.05143 29.2965L6.92707 29.2024L6.80362 29.1071L6.68109 29.0106L6.5595 28.9128L6.43887 28.8138L6.31919 28.7136L6.2005 28.6122L6.08279 28.5095L5.9661 28.4056L5.85042 28.3006L5.73577 28.1944L5.62215 28.087L5.5096 27.9785L5.39811 27.8687L5.2877 27.7579L5.17838 27.646L5.07016 27.5329L4.96306 27.4187L4.85708 27.3034L4.75225 27.187L4.64856 27.0696L4.54603 26.9511L4.44468 26.8315L4.34451 26.711L4.24555 26.5893L4.14778 26.4666L4.05123 26.343L3.95591 26.2183L3.86183 26.0926L3.769 25.966L3.67743 25.8384L3.58713 25.7098L3.49811 25.5804L3.41039 25.45L3.32396 25.3186L3.23885 25.1865L3.15505 25.0534L3.07259 24.9193L2.99147 24.7845L2.91169 24.6488L2.83328 24.5123L2.75623 24.375L2.68056 24.2368L2.60628 24.0977L2.53339 23.958L2.46191 23.8175L2.39183 23.6762L2.32318 23.5342L2.25595 23.3914L2.19016 23.248L2.12582 23.1038L2.06292 22.959L2.00149 22.8134L1.94153 22.6672L1.88303 22.5203L1.82603 22.3728L1.77051 22.2247L1.71649 22.076L1.66397 21.9267L1.61295 21.7769L1.56346 21.6264L1.51549 21.4754L1.46904 21.3239L1.42414 21.1719L1.38077 21.0194L1.33895 20.8663L1.29867 20.7129L1.25996 20.559L1.22281 20.4046L1.18723 20.2498L1.15323 20.0945L1.12079 19.9389L1.08995 19.7829L1.06068 19.6265L1.03301 19.4698L1.00694 19.3128L0.982458 19.1554L0.959586 18.9977L0.938322 18.8398L0.918674 18.6815L0.900634 18.523L0.88421 18.3643L0.86941 18.2054L0.856234 18.0462L0.844682 17.8869L0.834762 17.7274L0.826474 17.5677L0.819818 17.4078L0.814794 17.2479L0.81141 17.0878L0.809674 16.9277L0.80957 16.7674ZM16.312 5.03278L16.2756 1.95262L16.2409 1.95597L16.0819 1.97289L15.9233 1.99136L15.7647 2.01139L15.6068 2.03291L15.449 2.056L15.2914 2.08063L15.1343 2.10677L14.9773 2.13448L14.8212 2.16362L14.6648 2.1944L14.5095 2.22656L14.354 2.26034L14.1993 2.29556L14.0447 2.33234L13.8909 2.37053L13.7374 2.41026L13.5844 2.45147L13.4318 2.49417L13.28 2.53829L13.1284 2.58394L12.9776 2.63101L12.8272 2.67957L12.6776 2.72947L12.5282 2.78095L12.3797 2.83381L12.2318 2.88806L12.0844 2.9438L11.9377 3.00089L11.7919 3.05937L11.6465 3.11934L11.5017 3.18068L11.3577 3.24341L11.2145 3.30747L11.0721 3.37292L10.9304 3.43969L10.7892 3.50793L10.649 3.57741L10.5096 3.64825L10.3709 3.72043L10.2331 3.79394L10.0962 3.86871L9.95989 3.94486L9.82445 4.02233L9.69021 4.10091L9.55637 4.18102L9.42381 4.2622L9.29213 4.34464L9.16109 4.42843L9.03109 4.51345L8.90205 4.5997L8.77421 4.68697L8.64685 4.77579L8.52077 4.86556L8.39565 4.95657L8.27141 5.04882L8.14829 5.14217L8.02629 5.23665L7.90501 5.33245L7.78509 5.42916L7.66605 5.52714L7.54813 5.62619L7.43125 5.72639L7.31557 5.82755L7.20075 5.92999L7.08725 6.03334L6.97471 6.13789L6.86348 6.24331L6.75327 6.34988L6.64427 6.45741L6.53639 6.566L6.42956 6.67571L6.32413 6.78617L6.21988 6.89759L6.11656 7.01031L6.01467 7.12375L5.91403 7.23799L5.81443 7.35343L5.71627 7.46959L5.61919 7.58679L5.52343 7.70479L5.42891 7.82375L5.33563 7.94351L5.24373 8.06407L5.15303 8.18551L5.06357 8.30791L4.97555 8.43087L4.88871 8.55487L4.80326 8.67951L4.71912 8.80495L4.63625 8.93119L4.55478 9.05815L4.47464 9.18575L4.39585 9.31415L4.31847 9.44319L4.24235 9.57303L4.16761 9.70359L4.09434 9.83463L4.02238 9.96639L3.95179 10.0989L3.88264 10.2319L3.81485 10.3656L3.74851 10.4998L3.68356 10.6346L3.62004 10.7699L3.55791 10.9059L3.49724 11.0423L3.43795 11.1793L3.38011 11.3169L3.32375 11.4548L3.2688 11.5933L3.21529 11.7322L3.16325 11.8716L3.11265 12.0114L3.06355 12.1516L3.01586 12.2923L2.96965 12.4333L2.92492 12.5748L2.88167 12.7165L2.83987 12.8587L2.79957 13.0011L2.76075 13.1439L2.72339 13.2869L2.68753 13.4304L2.65316 13.574L2.62028 13.7179L2.58889 13.8621L2.55899 14.0065L2.53059 14.151L2.50368 14.2958L2.47827 14.4408L2.45436 14.586L2.43195 14.7313L2.41104 14.8767L2.39163 15.0223L2.37372 15.168L2.35731 15.3138L2.34241 15.4597L2.32901 15.6056L2.31711 15.7515L2.30671 15.8976L2.29781 16.0437L2.29041 16.1897L2.28451 16.3357L2.28011 16.4817L2.27722 16.6278L2.27581 16.7737L2.27591 16.9196L2.27749 17.0653L2.28057 17.2111L2.28514 17.3567L2.29119 17.5021L2.29875 17.6475L2.30777 17.7926L2.31828 17.9377L2.33027 18.0825L2.34375 18.2271L2.35868 18.3716L2.3751 18.5158L2.39298 18.6597L2.41232 18.8034L2.43313 18.9469L2.4554 19.0901L2.47911 19.2329L2.50429 19.3754L2.53091 19.5177L2.55896 19.6595L2.58846 19.8011L2.61939 19.9422L2.65175 20.083L2.68553 20.2234L2.72073 20.3634L2.75735 20.503L2.79537 20.6421L2.83481 20.7808L2.87564 20.919L2.91787 21.0568L2.96148 21.1941L3.00647 21.3308L3.05283 21.467L3.10058 21.6027L3.14968 21.7379L3.20013 21.8725L3.25196 22.0065L3.30511 22.14L3.35959 22.2729L3.41543 22.4051L3.47257 22.5367L3.53104 22.6677L3.59082 22.7981L3.6519 22.9278L3.71427 23.0569L3.77793 23.1852L3.84287 23.3129L3.90908 23.4398L3.97655 23.5661L4.04529 23.6916L4.11527 23.8163L4.18648 23.9403L4.25893 24.0636L4.33261 24.186L4.40747 24.3077L4.48358 24.4285L4.56085 24.5486L4.63933 24.6678L4.71899 24.7862L4.79979 24.9038L4.88176 25.0205L4.96491 25.1363L5.04916 25.2513L5.13458 25.3654L5.22107 25.4785L5.30873 25.5907L5.39743 25.702L5.48726 25.8124L5.57819 25.9219L5.67013 26.0304L5.76317 26.1379L5.85724 26.2445L5.95239 26.3501L6.04853 26.4546L6.14567 26.5582L6.24385 26.6608L6.34301 26.7624L6.44319 26.8629L6.54431 26.9624L6.64642 27.0609L6.74944 27.1582L6.85342 27.2546L6.95835 27.3499L7.06419 27.4441L7.17087 27.5371L7.27853 27.6291L7.38709 27.72L7.49637 27.8098L7.60669 27.8985L7.71773 27.9859L7.82965 28.0723L7.94237 28.1576L8.05597 28.2417L8.17029 28.3245L8.28541 28.4063L8.40125 28.4869L8.51797 28.5663L8.63533 28.6445L8.75357 28.7215L8.87237 28.7973L8.99197 28.8719L9.11229 28.9453L9.23317 29.0175L9.35485 29.0885L9.47709 29.1581L9.60005 29.2266L9.72357 29.2938L9.84781 29.3598L9.97253 29.4245L10.0979 29.4881L10.2239 29.5502L10.3505 29.6112L10.4775 29.6709L10.6051 29.7293L10.7332 29.7863L10.8619 29.8422L10.991 29.8966L11.1207 29.9499L11.2508 30.0018L11.3813 30.0524L11.5124 30.1017L11.6437 30.1497L11.7756 30.1964L11.9079 30.2417L12.0405 30.2858L12.1736 30.3286L12.3068 30.3699L12.4407 30.41L12.5747 30.4487L12.7091 30.4861L12.8438 30.5222L12.9788 30.5569L13.1141 30.5902L13.2495 30.6222L13.3853 30.6529L13.5213 30.6822L13.6575 30.7102L13.794 30.7369L13.9306 30.7621L14.0674 30.7861L14.2044 30.8086L14.3415 30.8298L14.4788 30.8497L14.6162 30.8681L14.7536 30.8853L14.8913 30.9011L15.0289 30.9155L15.1667 30.9286L15.3045 30.9403L15.4424 30.9507L15.5802 30.9597L15.7181 30.9674L15.856 30.9736L15.9938 30.9785L16.1316 30.9822L16.2695 30.9843L16.4072 30.9852L16.5449 30.9847L16.6825 30.9829L16.8199 30.9797L16.9573 30.9752L17.0945 30.9693L17.2316 30.9621L17.3685 30.9536L17.5053 30.9438L17.642 30.9326L17.7784 30.92L17.9145 30.9061L18.0505 30.8909L18.1862 30.8744L18.3217 30.8566L18.4569 30.8374L18.5919 30.8169L18.7265 30.7951L18.8609 30.772L18.995 30.7476L19.1287 30.7219L19.2621 30.695L19.3951 30.6666L19.5277 30.6371L19.66 30.6062L19.7919 30.5741L19.9233 30.5407L20.0544 30.506L20.1849 30.4701L20.3152 30.4329L20.4449 30.3944L20.5741 30.3547L20.7029 30.3138L20.8312 30.2716L20.9589 30.2282L21.0861 30.1836L21.2129 30.1377L21.339 30.0906L21.4646 30.0423L21.5897 29.9929L21.7141 29.9422L21.8379 29.8903L21.9612 29.8373L22.0838 29.783L22.2057 29.7277L22.3272 29.6711L22.4479 29.6133L22.5679 29.5546L22.6873 29.4945L22.806 29.4333L22.924 29.3711L23.0413 29.3077L23.1578 29.2432L23.2736 29.1776L23.3887 29.111L23.5032 29.0431L23.6166 28.9743L23.7296 28.9043L23.8415 28.8333L23.9527 28.7613L24.0632 28.6882L24.1728 28.6139L24.2815 28.5389L24.3894 28.4626L24.4965 28.3854L24.6028 28.3073L24.7082 28.228L24.8126 28.1479L24.9164 28.0666L25.019 27.9845L25.1208 27.9015L25.2218 27.8174L25.3218 27.7324L25.4208 27.6465L25.5189 27.5597L25.616 27.472L25.7123 27.3834L25.8076 27.2938L25.9017 27.2035L25.9951 27.1122L26.0874 27.02L26.1787 26.927L26.269 26.8332L26.3582 26.7386L26.4464 26.6433L26.5337 26.5468L26.6198 26.4498L26.705 26.3519L26.789 26.2534L26.872 26.1539L26.954 26.0538L27.0348 25.9529L27.1146 25.8513L27.1933 25.749L27.2709 25.6459L27.3473 25.5422L27.4228 25.4377L27.4972 25.3326L27.5701 25.2269L27.6422 25.1205L27.713 25.0135L27.7828 24.9058L27.8515 24.7973L27.9189 24.6886L27.9851 24.5791L28.0503 24.4688L28.1141 24.3583L28.1769 24.247L28.2386 24.1352L28.2989 24.023L28.3582 23.9101L28.4163 23.7966L28.473 23.6831L28.5287 23.5686L28.5832 23.4537L28.6364 23.3386L28.6884 23.2229L28.7392 23.1067L28.7887 22.9902L28.8371 22.8731L28.8842 22.7557L28.9301 22.6382L28.9747 22.5198L29.0181 22.4014L29.0603 22.2824L29.1013 22.1632L29.1409 22.0436L29.1793 21.924L29.2165 21.8035L29.2524 21.6832L29.287 21.5625L29.3204 21.4416L29.3526 21.3202L29.3834 21.1989L29.4131 21.0771L29.4414 20.9551L29.4685 20.833L29.4944 20.7106L29.5189 20.5883L29.5421 20.4654L29.5641 20.3429L29.5849 20.2198L29.6043 20.0967L29.6225 19.9736L29.6394 19.8502L29.655 19.727L29.6694 19.6033L29.6824 19.48L29.6943 19.3563L29.7048 19.2329L29.7141 19.109L29.722 18.9857L29.7288 18.8619L29.7342 18.7381L29.7384 18.6145L29.7413 18.4913L29.7429 18.3675L29.7433 18.244L29.7425 18.1206L29.7403 17.9974L29.7369 17.8741L29.7321 17.7513L29.7262 17.628L29.719 17.5053L29.7105 17.3826L29.7009 17.2602L29.6899 17.1377L29.6777 17.0157L29.6643 16.8936L29.6496 16.7719L29.6337 16.6503L29.6165 16.5291L29.5981 16.4078L29.5785 16.2871L29.5577 16.1668L29.5356 16.0464L29.5122 15.9264L29.4877 15.8069L29.462 15.6873L29.4352 15.5686L29.4069 15.4497L29.3777 15.3316L29.3471 15.2134L29.3154 15.096L29.2825 14.9788L29.2484 14.8618L29.2133 14.7456L29.1768 14.6298L29.1392 14.514L29.1005 14.3991L29.0605 14.2843L29.0196 14.1702L28.9773 14.0564L28.9341 13.9433L28.8895 13.8305L28.8439 13.7182L28.7973 13.6067L28.7495 13.4957L28.7004 13.3848L28.6505 13.275L28.5992 13.1652L28.5471 13.0565L28.4938 12.9481L28.4393 12.8402L28.384 12.7332L28.3274 12.6266L28.2697 12.5205L28.2113 12.4155L28.1516 12.3107L28.0909 12.2068L28.0291 12.1033L27.9665 12.0009L27.9026 11.8988L27.838 11.7976L27.7721 11.6969L27.7054 11.597L27.6378 11.4981L27.569 11.3995L27.4993 11.3018L27.4288 11.2049L27.3572 11.1088L27.2847 11.0133L27.2113 10.9187L27.1369 10.8248L27.0617 10.7317L26.9855 10.6395L26.9084 10.548L26.8304 10.4573L26.7516 10.3675L26.672 10.2785L26.5914 10.1904L26.5098 10.103L26.4278 10.0167L26.3444 9.93095L26.2607 9.84639L26.176 9.76247L26.0905 9.67959L26.004 9.59735L25.9171 9.51639L25.8291 9.43607L25.7404 9.35671L25.6512 9.27839L25.5611 9.20095L25.47 9.12423L25.3784 9.04863L25.2861 8.97399L25.1931 8.90031L25.0993 8.82751L25.0051 8.75591L24.9098 8.68487L24.8142 8.61519L24.7178 8.54639L24.6207 8.47847L24.5232 8.41167L24.4246 8.34567L24.326 8.28103L24.2264 8.21711L24.1264 8.15431L24.0256 8.09247L23.9244 8.03167L23.8226 7.97199L23.7204 7.91343L23.6173 7.85559L23.5142 7.79911L23.4102 7.74351L23.3058 7.68903L23.201 7.63567L23.0956 7.58327L22.9897 7.53191L22.8835 7.48175L22.7767 7.43255L22.6697 7.38455L22.562 7.33751L22.4506 7.29015L22.3458 7.24687L22.2368 7.20303L22.1279 7.16055L22.0181 7.11887L21.9084 7.07855L21.7981 7.03919L21.6877 7.00103L21.5767 6.96383L21.4657 6.92791L21.3541 6.89303L21.2424 6.85927L21.1305 6.82671L21.0182 6.79516L20.9055 6.76469L20.7929 6.73547L20.6801 6.70736L20.5666 6.68028L20.4535 6.65445L20.3398 6.62965L20.2261 6.60605L20.1121 6.58352L19.9981 6.56217L19.8839 6.54193L19.7697 6.52287L19.655 6.50487L19.5406 6.48806L19.426 6.47237L19.3112 6.4578L19.1964 6.44437L19.0816 6.4321L18.9667 6.42095L18.8517 6.41093L18.7367 6.40205L18.6216 6.39429L18.5068 6.38768L18.3919 6.3822L18.2766 6.37784L18.162 6.37462L18.0471 6.37253L17.9323 6.37157L17.8173 6.37173L17.7943 6.37199L17.8305 9.42975L17.8957 9.42943L17.9797 9.42991L18.0636 9.43119L18.1476 9.43335L18.2316 9.43631L18.3157 9.44015L18.3998 9.44479L18.484 9.45023L18.5681 9.45655L18.6523 9.46367L18.7365 9.47167L18.8205 9.48047L18.9047 9.49015L18.9888 9.50063L19.0728 9.51191L19.1568 9.52415L19.2407 9.53711L19.3245 9.55095L19.4084 9.56567L19.4921 9.58119L19.5757 9.59759L19.6592 9.61479L19.7426 9.63279L19.8259 9.65167L19.909 9.67143L19.9921 9.69199L20.0749 9.71335L20.1576 9.73559L20.2401 9.75863L20.3225 9.78255L20.4048 9.80727L20.4868 9.83279L20.5685 9.85919L20.6501 9.88639L20.7316 9.91447L20.8127 9.94335L20.8937 9.97303L20.9743 10.0035L21.0548 10.0349L21.1349 10.067L21.2148 10.1L21.2945 10.1338L21.3738 10.1684L21.4529 10.2038L21.5316 10.24L21.61 10.277L21.6881 10.3149L21.7659 10.3535L21.8433 10.393L21.9205 10.4332L21.9972 10.4741L22.0736 10.516L22.1496 10.5585L22.2252 10.6019L22.3005 10.6461L22.3753 10.691L22.4497 10.7367L22.5237 10.7832L22.5973 10.8305L22.6705 10.8785L22.7433 10.9272L22.8156 10.9767L22.8874 11.027L22.9588 11.078L23.0297 11.1297L23.1 11.1823L23.17 11.2355L23.2394 11.2895L23.3084 11.3442L23.3768 11.3996L23.4447 11.4557L23.5121 11.5126L23.5789 11.5701L23.6453 11.6284L23.711 11.6873L23.7762 11.747L23.8408 11.8074L23.9049 11.8684L23.9683 11.9301L24.0312 11.9925L24.0935 12.0555L24.1552 12.1193L24.2163 12.1836L24.2767 12.2486L24.3365 12.3143L24.3957 12.3806L24.4543 12.4475L24.5122 12.5151L24.5695 12.5833L24.6261 12.6521L24.6821 12.7215L24.7373 12.7915L24.7919 12.8621L24.8458 12.9333L24.899 13.0052L24.9515 13.0775L25.0033 13.1505L25.0544 13.224L25.1048 13.2981L25.1544 13.3727L25.2033 13.4478L25.2514 13.5236L25.2988 13.5998L25.3456 13.6765L25.3915 13.7538L25.4366 13.8317L25.481 13.9099L25.5246 13.9887L25.5674 14.068L25.6095 14.1477L25.6508 14.228L25.6912 14.3087L25.7309 14.3899L25.7697 14.4715L25.8077 14.5535L25.8449 14.6361L25.8813 14.719L25.9169 14.8023L25.9517 14.8861L25.9856 14.9702L26.0186 15.0548L26.0508 15.1397L26.0821 15.225L26.1126 15.3107L26.1423 15.3968L26.1711 15.4832L26.1989 15.57L26.226 15.657L26.2521 15.7445L26.2774 15.8322L26.3018 15.9203L26.3253 16.0087L26.3479 16.0974L26.3696 16.1863L26.3904 16.2755L26.4103 16.365L26.4293 16.4548L26.4473 16.5448L26.4645 16.635L26.4807 16.7256L26.4961 16.8163L26.5105 16.9072L26.5239 16.9984L26.5365 17.0897L26.548 17.1812L26.5588 17.2729L26.5685 17.3649L26.5772 17.4569L26.5852 17.5491L26.5921 17.6414L26.5981 17.7339L26.603 17.8265L26.6071 17.9192L26.6102 18.0121L26.6124 18.1049L26.6136 18.198L26.6138 18.2911L26.6131 18.3842L26.6114 18.4774L26.6088 18.5707L26.6052 18.6641L26.6006 18.7574L26.5951 18.8507L26.5886 18.9442L26.5812 19.0375L26.5727 19.1309L26.5633 19.2242L26.5529 19.3175L26.5417 19.4109L26.5293 19.5041L26.5161 19.5973L26.5018 19.6904L26.4866 19.7834L26.4704 19.8764L26.4533 19.9693L26.4352 20.0621L26.416 20.1547L26.396 20.2473L26.375 20.3397L26.353 20.4319L26.3301 20.524L26.3061 20.616L26.2812 20.7078L26.2554 20.7994L26.2286 20.8907L26.2009 20.9819L26.1721 21.073L26.1424 21.1637L26.1117 21.2542L26.0801 21.3445L26.0477 21.4346L26.0141 21.5244L25.9797 21.6139L25.9443 21.7032L25.908 21.7922L25.8707 21.8809L25.8324 21.9692L25.7933 22.0573L25.7533 22.145L25.7122 22.2324L25.6703 22.3194L25.6274 22.4061L25.5836 22.4925L25.5388 22.5785L25.4932 22.664L25.4467 22.7492L25.3993 22.834L25.3509 22.9184L25.3017 23.0023L25.2515 23.0859L25.2005 23.169L25.1485 23.2517L25.0957 23.3338L25.042 23.4156L24.9873 23.4968L24.9319 23.5776L24.8756 23.6579L24.8184 23.7377L24.7603 23.8169L24.7014 23.8958L24.6417 23.974L24.581 24.0517L24.5196 24.1288L24.4573 24.2054L24.3941 24.2814L24.3302 24.3569L24.2654 24.4318L24.1998 24.5061L24.1334 24.5798L24.0662 24.6529L23.9982 24.7254L23.9295 24.7973L23.8599 24.8685L23.7896 24.9392L23.7184 25.0091L23.6465 25.0785L23.5738 25.1471L23.5005 25.215L23.4263 25.2824L23.3513 25.349L23.2757 25.4149L23.1993 25.4801L23.1223 25.5446L23.0445 25.6085L22.966 25.6715L22.8867 25.7338L22.8068 25.7954L22.7262 25.8563L22.6449 25.9164L22.5629 25.9758L22.4804 26.0344L22.3971 26.0922L22.3132 26.1492L22.2285 26.2054L22.1433 26.2609L22.0575 26.3155L21.9711 26.3693L21.884 26.4223L21.7964 26.4745L21.7081 26.5259L21.6193 26.5764L21.5298 26.6261L21.4398 26.6749L21.3493 26.7229L21.2581 26.7701L21.1665 26.8163L21.0743 26.8617L20.9816 26.9062L20.8883 26.9498L20.7945 26.9926L20.7003 27.0344L20.6056 27.0754L20.5103 27.1154L20.4146 27.1545L20.3185 27.1927L20.2218 27.23L20.1248 27.2664L20.0273 27.3018L19.9293 27.3363L19.8309 27.3698L19.7322 27.4025L19.633 27.4341L19.5335 27.4648L19.4336 27.4946L19.3333 27.5233L19.2326 27.5511L19.1316 27.5779L19.0302 27.6038L18.9285 27.6286L18.8265 27.6525L18.7241 27.6754L18.6216 27.6973L18.5186 27.7182L18.4154 27.7381L18.312 27.7571L18.2082 27.775L18.1042 27.7919L18.0001 27.8077L17.8956 27.8226L17.7909 27.8365L17.686 27.8493L17.5809 27.8611L17.4757 27.8719L17.3702 27.8817L17.2646 27.8904L17.1588 27.8981L17.0529 27.9047L16.9469 27.9103L16.8407 27.9149L16.7344 27.9184L16.628 27.9209L16.5215 27.9223L16.4149 27.9227L16.3082 27.9221L16.2016 27.9203L16.0948 27.9176L15.988 27.9137L15.8812 27.9089L15.7743 27.9029L15.6675 27.896L15.5606 27.888L15.4538 27.8789L15.347 27.8687L15.2402 27.8575L15.1335 27.8453L15.0269 27.832L14.9202 27.8176L14.8137 27.8021L14.7073 27.7857L14.601 27.7681L14.4948 27.7495L14.3887 27.7299L14.2828 27.7092L14.177 27.6874L14.0713 27.6646L13.9659 27.6407L13.8606 27.6158L13.7555 27.5898L13.6506 27.5627L13.5459 27.5346L13.4414 27.5055L13.3372 27.4754L13.2333 27.4442L13.1295 27.4119L13.026 27.3785L12.9229 27.3442L12.82 27.3089L12.7174 27.2725L12.6152 27.235L12.5132 27.1965L12.4116 27.157L12.3103 27.1166L12.2093 27.0749L12.1088 27.0324L12.0086 26.9889L11.9089 26.9442L11.8094 26.8986L11.7105 26.8521L11.6119 26.8045L11.5137 26.7558L11.416 26.7062L11.3188 26.6557L11.222 26.6041L11.1257 26.5515L11.0298 26.498L10.9345 26.4434L10.8396 26.388L10.7452 26.3315L10.6514 26.2741L10.5581 26.2157L10.4654 26.1564L10.3733 26.0961L10.2817 26.0349L10.1906 25.9727L10.1001 25.9097L10.0103 25.8457L9.92101 25.7807L9.83237 25.7149L9.74429 25.6481L9.65693 25.5804L9.57021 25.5118L9.48413 25.4423L9.39869 25.372L9.31389 25.3007L9.22981 25.2286L9.14645 25.1556L9.06373 25.0818L8.98173 25.007L8.90053 24.9315L8.81997 24.8551L8.74013 24.7778L8.66109 24.6998L8.58285 24.6209L8.50533 24.5411L8.42853 24.4606L8.35253 24.3793L8.27741 24.2972L8.20301 24.2142L8.12941 24.1306L8.05669 24.0461L7.98469 23.9609L7.91365 23.8749L7.84333 23.7881L7.77397 23.7006L7.70541 23.6124L7.63773 23.5234L7.57093 23.4338L7.50493 23.3434L7.43989 23.2523L7.37581 23.1606L7.31253 23.0681L7.25021 22.975L7.18882 22.8812L7.12835 22.7867L7.0688 22.6916L7.01021 22.5958L6.95256 22.4994L6.89587 22.4025L6.84015 22.3048L6.78539 22.2066L6.73161 22.1077L6.67882 22.0084L6.62701 21.9084L6.5762 21.8078L6.5264 21.7067L6.47761 21.605L6.42983 21.5029L6.38308 21.4001L6.33735 21.2969L6.29267 21.1931L6.24902 21.0888L6.20641 20.9841L6.16487 20.8789L6.12437 20.7731L6.08494 20.667L6.04657 20.5604L6.00928 20.4533L5.97307 20.3458L5.93795 20.2379L5.90391 20.1296L5.87096 20.0209L5.83911 19.9118L5.80837 19.8024L5.77873 19.6925L5.75021 19.5823L5.7228 19.4718L5.69651 19.361L5.67135 19.2498L5.64731 19.1382L5.6244 19.0265L5.60263 18.9144L5.582 18.802L5.56251 18.6894L5.54418 18.5765L5.52699 18.4634L5.51095 18.35L5.49607 18.2364L5.48235 18.1225L5.46979 18.0086L5.45839 17.8944L5.44815 17.78L5.4391 17.6654L5.43121 17.5508L5.42449 17.4359L5.41895 17.3209L5.41459 17.2059L5.41142 17.0907L5.40942 16.9754L5.4086 16.86L5.40898 16.7446L5.41053 16.629L5.41328 16.5135L5.41721 16.3979L5.42234 16.2822L5.42866 16.1666L5.43616 16.0509L5.44487 15.9354L5.45475 15.8197L5.46584 15.7041L5.47813 15.5885L5.4916 15.4731L5.50627 15.3577L5.52214 15.2423L5.53919 15.127L5.55745 15.0119L5.57689 14.8969L5.59753 14.782L5.61936 14.6672L5.64239 14.5526L5.66659 14.4382L5.692 14.3238L5.71859 14.2097L5.74637 14.0958L5.77533 13.9821L5.80548 13.8687L5.83681 13.7554L5.86932 13.6425L5.90302 13.5297L5.93788 13.4173L5.97393 13.305L6.01115 13.1932L6.04953 13.0816L6.08909 12.9703L6.12981 12.8593L6.17169 12.7487L6.21473 12.6385L6.25893 12.5285L6.30428 12.419L6.35079 12.3099L6.39843 12.2011L6.44723 12.0928L6.49716 11.9849L6.54823 11.8773L6.60043 11.7703L6.65377 11.6637L6.70823 11.5576L6.7638 11.452L6.82049 11.3468L6.8783 11.2421L6.93721 11.138L6.99722 11.0343L7.05833 10.9313L7.12054 10.8287L7.18383 10.7267L7.24821 10.6253L7.31365 10.5244L7.38021 10.4241L7.44773 10.3245L7.51645 10.2254L7.58613 10.1269L7.65685 10.0291L7.72869 9.93199L7.80149 9.83543L7.87541 9.73959L7.95029 9.64439L8.02621 9.54991L8.10309 9.45615L8.18101 9.36303L8.25997 9.27063L8.33989 9.17895L8.42077 9.08807L8.50269 8.99791L8.58549 8.90847L8.66933 8.81983L8.75413 8.73191L8.83981 8.64487L8.92645 8.55855L9.01405 8.47303L9.10261 8.38839L9.19205 8.30447L9.28237 8.22151L9.37365 8.13927L9.46581 8.05799L9.55877 7.97751L9.65269 7.89791L9.74749 7.81919L9.84309 7.74135L9.93957 7.66439L10.0369 7.58839L10.1351 7.51327L10.234 7.43911L10.3339 7.36583L10.4345 7.29351L10.5358 7.22215L10.6381 7.15175L10.741 7.08231L10.8447 7.01391L10.9493 6.94639L11.0545 6.87991L11.1604 6.81442L11.2672 6.74993L11.3746 6.68646L11.4827 6.62401L11.5916 6.56259L11.7011 6.5022L11.8113 6.44286L11.9221 6.38457L12.0337 6.32734L12.1458 6.27117L12.2586 6.21608L12.3721 6.16206L12.4861 6.10913L12.6008 6.05729L12.7161 6.00655L12.8319 5.95692L12.9483 5.9084L13.0652 5.86099L13.1827 5.81471L13.3008 5.76956L13.4193 5.72554L13.5385 5.68267L13.6581 5.64094L13.7781 5.60037L13.8987 5.56095L14.0197 5.5227L14.1412 5.48561L14.2631 5.4497L14.3855 5.41497L14.5082 5.38142L14.6314 5.34906L14.755 5.31789L14.879 5.28793L15.0033 5.25917L15.1281 5.2316L15.2531 5.20525L15.3785 5.18011L15.5042 5.1562L15.6302 5.1335L15.7565 5.11203L15.8832 5.09179L16.0101 5.07278L16.1372 5.05501L16.2645 5.03848L16.312 5.03278ZM16.3658 9.56807L16.3292 6.4767L16.2248 6.49129L16.1125 6.50812L16.0002 6.52606L15.8886 6.54503L15.7769 6.56516L15.6657 6.58632L15.5547 6.60857L15.4441 6.63185L15.3338 6.65625L15.2237 6.68172L15.114 6.70824L15.0047 6.73581L14.8955 6.76448L14.7906 6.79311L14.6789 6.82487L14.5709 6.85663L14.4635 6.88943L14.3566 6.92319L14.25 6.95807L14.1437 6.99399L14.038 7.03087L13.9328 7.06871L13.828 7.10767L13.7236 7.14751L13.6197 7.18847L13.5166 7.23031L13.4135 7.27327L13.3112 7.31711L13.2093 7.36191L13.1082 7.40767L13.0073 7.45447L12.907 7.50223L12.8076 7.55079L12.7083 7.60047L12.6101 7.65095L12.512 7.70255L12.4149 7.75479L12.3179 7.80831L12.2219 7.86239L12.1265 7.91751L12.0316 7.97359L11.9375 8.03047L11.8438 8.08839L11.7511 8.14695L11.6588 8.20655L11.5673 8.26695L11.4765 8.32815L11.3864 8.39031L11.2968 8.45335L11.2082 8.51695L11.1201 8.58167L11.0328 8.64711L10.9462 8.71335L10.8604 8.78031L10.7753 8.84823L10.691 8.91679L10.6075 8.98615L10.5246 9.05647L10.4428 9.12727L10.3615 9.19903L10.281 9.27151L10.2014 9.34463L10.1227 9.41847L10.0445 9.49319L9.96749 9.56839L9.89117 9.64439L9.81557 9.72119L9.74093 9.79855L9.66709 9.87671L9.59413 9.95543L9.52205 10.0348L9.45077 10.1149L9.38029 10.1957L9.31101 10.2769L9.24237 10.3589L9.17461 10.4415L9.10781 10.5246L9.04197 10.6083L8.97685 10.6928L8.91277 10.7777L8.84957 10.8632L8.78733 10.9493L8.72597 11.0359L8.66565 11.1229L8.60621 11.2106L8.54765 11.2989L8.49005 11.3876L8.43349 11.4767L8.37789 11.5664L8.32317 11.6567L8.26941 11.7473L8.21669 11.8384L8.16485 11.93L8.11413 12.0218L8.06429 12.1143L8.01533 12.2073L7.96757 12.3004L7.92069 12.3941L7.87485 12.4882L7.82997 12.5826L7.78613 12.6774L7.74325 12.7725L7.70141 12.8681L7.66053 12.9639L7.62077 13.0601L7.58197 13.1565L7.54413 13.2534L7.50733 13.3505L7.47165 13.4479L7.43685 13.5457L7.40325 13.6435L7.37053 13.7417L7.33893 13.8402L7.30829 13.9389L7.27877 14.0378L7.25021 14.1369L7.22277 14.2362L7.1963 14.3358L7.17089 14.4355L7.14653 14.5354L7.12322 14.6355L7.10094 14.7357L7.0797 14.8361L7.05953 14.9365L7.04039 15.0371L7.02229 15.1379L7.00526 15.2387L6.98925 15.3397L6.97431 15.4405L6.9604 15.5417L6.94755 15.6428L6.93575 15.744L6.92499 15.8452L6.91527 15.9465L6.90661 16.0477L6.89899 16.149L6.89242 16.2503L6.88688 16.3516L6.88239 16.4528L6.87895 16.554L6.87655 16.6551L6.87519 16.7562L6.87486 16.8574L6.87557 16.9583L6.87732 17.0592L6.88011 17.16L6.88391 17.2606L6.88876 17.3613L6.89463 17.4618L6.90153 17.562L6.90946 17.6622L6.9184 17.7622L6.92837 17.8621L6.93935 17.9618L6.95135 18.0613L6.96436 18.1606L6.97838 18.2597L6.99341 18.3586L7.00943 18.4572L7.02647 18.5557L7.0445 18.6539L7.06351 18.7518L7.08353 18.8495L7.10452 18.9469L7.12651 19.0441L7.14946 19.1408L7.17341 19.2373L7.19832 19.3336L7.22421 19.4295L7.25101 19.525L7.27885 19.6203L7.30757 19.7152L7.33733 19.8097L7.36797 19.904L7.39957 19.9977L7.43213 20.0911L7.46557 20.1841L7.49997 20.2768L7.53533 20.369L7.57157 20.4608L7.60869 20.5522L7.64677 20.6431L7.68573 20.7336L7.72565 20.8236L7.76637 20.9132L7.80805 21.0022L7.85061 21.0909L7.89397 21.179L7.93829 21.2666L7.98341 21.3538L8.02941 21.4405L8.07629 21.5265L8.12397 21.6122L8.17253 21.6972L8.22189 21.7817L8.27213 21.8656L8.32317 21.949L8.37501 22.0318L8.42765 22.1141L8.48117 22.1958L8.53533 22.2768L8.59045 22.3574L8.64621 22.4372L8.70285 22.5165L8.76021 22.5951L8.81837 22.6731L8.87725 22.7505L8.93693 22.8273L8.99725 22.9033L9.05837 22.9788L9.12021 23.0536L9.18277 23.1278L9.24605 23.2011L9.31005 23.274L9.37469 23.346L9.44005 23.4174L9.50605 23.4881L9.57277 23.5581L9.64013 23.6273L9.70821 23.6959L9.77685 23.7638L9.84621 23.8309L9.91621 23.8973L9.98669 23.9629L10.058 24.0278L10.1297 24.0919L10.2021 24.1553L10.2752 24.2179L10.3488 24.2798L10.4229 24.3409L10.4977 24.4011L10.5729 24.4606L10.6488 24.5193L10.7252 24.5774L10.8021 24.6345L10.8795 24.6908L10.9574 24.7463L11.0359 24.801L11.1149 24.8549L11.1944 24.9081L11.2743 24.9603L11.3547 25.0117L11.4356 25.0624L11.5169 25.1122L11.5986 25.1611L11.6809 25.2092L11.7634 25.2564L11.8465 25.3028L11.9299 25.3483L12.0138 25.393L12.0981 25.4369L12.1826 25.4797L12.2676 25.5219L12.3531 25.5631L12.4388 25.6035L12.5248 25.643L12.6113 25.6816L12.6979 25.7193L12.7849 25.7561L12.8723 25.7921L12.96 25.8271L13.0478 25.8613L13.1361 25.8946L13.2245 25.927L13.3133 25.9585L13.4022 25.989L13.4915 26.0188L13.5809 26.0475L13.6706 26.0754L13.7605 26.1024L13.8506 26.1285L13.9409 26.1537L14.0313 26.1779L14.122 26.2013L14.2128 26.2237L14.3037 26.2453L14.3949 26.2659L14.4861 26.2857L14.5775 26.3045L14.6689 26.3223L14.7606 26.3393L14.8522 26.3554L14.9441 26.3706L15.0359 26.3847L15.1278 26.3981L15.2198 26.4105L15.3118 26.422L15.4039 26.4326L15.496 26.4422L15.5881 26.4509L15.6803 26.4588L15.7725 26.4657L15.8646 26.4718L15.9567 26.4768L16.0488 26.481L16.1409 26.4843L16.2329 26.4867L16.3249 26.4881L16.4168 26.4887L16.5086 26.4884L16.6004 26.4871L16.692 26.485L16.7836 26.482L16.8751 26.4781L16.9664 26.4732L17.0576 26.4675L17.1486 26.4609L17.2396 26.4534L17.3303 26.445L17.4209 26.4357L17.5114 26.4255L17.6017 26.4145L17.6917 26.4025L17.7816 26.3898L17.8713 26.3762L17.9607 26.3616L18.0498 26.3462L18.1389 26.3299L18.2276 26.3128L18.3161 26.2949L18.4044 26.276L18.4922 26.2563L18.5799 26.2358L18.6672 26.2144L18.7544 26.1922L18.8412 26.1692L18.9277 26.1453L19.0138 26.1206L19.0997 26.095L19.1851 26.0687L19.2702 26.0415L19.3551 26.0135L19.4395 25.9847L19.5236 25.9551L19.6073 25.9247L19.6905 25.8935L19.7734 25.8615L19.8559 25.8287L19.9381 25.7951L20.0197 25.7608L20.1009 25.7257L20.1818 25.6898L20.2621 25.6532L20.3421 25.6158L20.4217 25.5776L20.5005 25.5388L20.5793 25.499L20.6573 25.4587L20.7349 25.4175L20.8119 25.3758L20.8885 25.3332L20.9647 25.2899L21.0402 25.2459L21.1153 25.2012L21.1899 25.1558L21.2638 25.1098L21.3374 25.0629L21.4102 25.0156L21.4826 24.9674L21.5545 24.9185L21.6257 24.8691L21.6963 24.8191L21.7665 24.7682L21.836 24.7169L21.9049 24.6649L21.9733 24.6122L22.0409 24.559L22.1081 24.5049L22.1747 24.4504L22.2404 24.3953L22.3058 24.3394L22.3704 24.2832L22.4343 24.2264L22.4978 24.1687L22.5604 24.1108L22.6224 24.0522L22.6839 23.9929L22.7445 23.9333L22.8046 23.8729L22.864 23.8121L22.9228 23.7508L22.9807 23.6889L23.0381 23.6265L23.0948 23.5637L23.1506 23.5004L23.206 23.4364L23.2605 23.3721L23.3142 23.3073L23.3674 23.2418L23.4197 23.1762L23.4714 23.1099L23.5224 23.0433L23.5726 22.9761L23.6221 22.9086L23.6707 22.8407L23.7188 22.7722L23.766 22.7034L23.8125 22.6342L23.8583 22.5646L23.9031 22.4947L23.9474 22.4243L23.9909 22.3535L24.0336 22.2825L24.0754 22.211L24.1167 22.1391L24.1569 22.0672L24.1966 21.9946L24.2354 21.9218L24.2733 21.8488L24.3107 21.7752L24.347 21.7017L24.3828 21.6275L24.4175 21.5535L24.4517 21.4787L24.4849 21.4041L24.5174 21.3288L24.5491 21.2536L24.5799 21.1781L24.61 21.1022L24.6392 21.0261L24.6676 20.9501L24.6953 20.8735L24.7221 20.7969L24.7481 20.7201L24.7733 20.643L24.7977 20.5658L24.8212 20.4884L24.844 20.4109L24.8659 20.3332L24.8869 20.2554L24.9073 20.1774L24.9267 20.0993L24.9453 20.0213L24.9632 19.9428L24.9801 19.8644L24.9964 19.7859L25.0117 19.7074L25.0262 19.6288L25.0399 19.5498L25.0528 19.4712L25.0648 19.3923L25.076 19.3134L25.0865 19.2345L25.0961 19.1556L25.1048 19.0764L25.1128 18.9977L25.12 18.9185L25.1263 18.8395L25.1317 18.7607L25.1364 18.6817L25.1403 18.6028L25.1433 18.524L25.1456 18.445L25.1469 18.3664L25.1476 18.2875L25.1473 18.2089L25.1464 18.1302L25.1445 18.0519L25.1419 17.9734L25.1384 17.8951L25.1342 17.8171L25.1292 17.7389L25.1233 17.6609L25.1168 17.5833L25.1093 17.5054L25.1011 17.4281L25.0921 17.3505L25.0823 17.2734L25.0717 17.1964L25.0604 17.1194L25.0482 17.0428L25.0353 16.9664L25.0217 16.8902L25.0072 16.8141L24.9919 16.7381L24.9759 16.6625L24.9592 16.5873L24.9417 16.5121L24.9233 16.437L24.9044 16.3626L24.8845 16.288L24.864 16.214L24.8428 16.1401L24.8208 16.0666L24.798 15.9933L24.7745 15.9202L24.7504 15.8477L24.7255 15.7753L24.6997 15.7031L24.6735 15.6315L24.6464 15.5601L24.6186 15.4891L24.5901 15.4183L24.5609 15.3478L24.5311 15.278L24.5005 15.2082L24.4693 15.139L24.4373 15.0702L24.4047 15.0016L24.3713 14.9333L24.3375 14.8658L24.3028 14.7983L24.2676 14.7315L24.2316 14.6651L24.195 14.5988L24.1579 14.5333L24.12 14.468L24.0815 14.4033L24.0423 14.3388L24.0027 14.275L23.9622 14.2114L23.9213 14.1485L23.8797 14.0861L23.8376 14.0241L23.7947 13.9624L23.7513 13.9013L23.7075 13.8409L23.6629 13.7806L23.6178 13.7211L23.5721 13.662L23.526 13.6035L23.4791 13.5453L23.4317 13.4878L23.3838 13.4308L23.3354 13.3742L23.2865 13.3184L23.2369 13.2629L23.187 13.2081L23.1364 13.1537L23.0856 13.1001L23.0339 13.0467L22.982 12.9942L22.9293 12.9419L22.8764 12.8905L22.823 12.8396L22.7691 12.7892L22.7146 12.7393L22.6597 12.6902L22.6045 12.6417L22.5485 12.5935L22.4926 12.5463L22.4359 12.4994L22.3789 12.4532L22.3214 12.4077L22.2635 12.3625L22.2053 12.3182L22.1468 12.2746L22.0876 12.2314L22.028 12.1888L21.9684 12.1471L21.908 12.1058L21.8477 12.0653L21.7868 12.0253L21.7255 11.986L21.6638 11.9473L21.6021 11.9093L21.5396 11.8719L21.4772 11.8353L21.4141 11.7991L21.3512 11.7638L21.2877 11.7291L21.2238 11.6949L21.1597 11.6615L21.0955 11.6289L21.0309 11.5967L20.9659 11.5653L20.9009 11.5345L20.8357 11.5045L20.7697 11.475L20.7041 11.4464L20.6381 11.4184L20.5717 11.3909L20.5052 11.3643L20.4386 11.3384L20.3717 11.3131L20.3045 11.2884L20.2373 11.2645L20.1698 11.2413L20.1021 11.2187L20.0345 11.1969L19.9666 11.1757L19.8987 11.1553L19.8302 11.1354L19.762 11.1164L19.6936 11.098L19.625 11.0803L19.5564 11.0633L19.4874 11.047L19.4186 11.0313L19.3498 11.0165L19.2807 11.0022L19.2114 10.9886L19.1425 10.9759L19.0732 10.9637L19.004 10.9523L18.9345 10.9415L18.8653 10.9315L18.7957 10.9221L18.7264 10.9135L18.657 10.9055L18.5876 10.8982L18.5182 10.8917L18.4487 10.8857L18.3795 10.8805L18.3099 10.8761L18.2406 10.8722L18.1715 10.8691L18.1019 10.8666L18.0329 10.8649L17.9637 10.8638L17.8947 10.8634L17.8475 10.8636L17.8833 13.8839L17.9046 13.884L17.9443 13.8845L17.9841 13.8855L18.0239 13.8868L18.0637 13.8886L18.1037 13.8908L18.1436 13.8933L18.1836 13.8964L18.2236 13.8998L18.2637 13.9037L18.3037 13.9079L18.3438 13.9125L18.384 13.9177L18.4241 13.9232L18.4642 13.9291L18.5044 13.9355L18.5445 13.9423L18.5846 13.9495L18.6248 13.9572L18.6649 13.9652L18.7049 13.9737L18.745 13.9826L18.7851 13.992L18.825 14.0017L18.865 14.0119L18.9049 14.0225L18.9448 14.0336L18.9846 14.045L19.0244 14.0569L19.0641 14.0693L19.1037 14.0821L19.1433 14.0953L19.1827 14.1089L19.2221 14.1229L19.2614 14.1373L19.3006 14.1522L19.3397 14.1675L19.3788 14.1833L19.4177 14.1994L19.4564 14.216L19.4952 14.233L19.5337 14.2505L19.5722 14.2683L19.6105 14.2866L19.6487 14.3053L19.6868 14.3244L19.7246 14.344L19.7624 14.3639L19.8 14.3843L19.8374 14.4051L19.8747 14.4263L19.9118 14.4479L19.9487 14.4699L19.9855 14.4924L20.0221 14.5153L20.0585 14.5386L20.0946 14.5621L20.1306 14.5862L20.1665 14.6108L20.2021 14.6357L20.2374 14.6609L20.2726 14.6866L20.3076 14.7127L20.3423 14.7392L20.3768 14.7661L20.4111 14.7933L20.4451 14.821L20.4788 14.849L20.5124 14.8775L20.5457 14.9063L20.5788 14.9355L20.6116 14.9651L20.6441 14.9951L20.6763 15.0254L20.7082 15.0561L20.74 15.0873L20.7713 15.1187L20.8025 15.1505L20.8333 15.1827L20.8638 15.2153L20.8941 15.2482L20.924 15.2815L20.9536 15.3151L20.9829 15.3491L21.0119 15.3834L21.0406 15.4181L21.0689 15.4531L21.0969 15.4885L21.1246 15.5241L21.152 15.5602L21.179 15.5965L21.2057 15.6333L21.2319 15.6702L21.2579 15.7076L21.2835 15.7453L21.3087 15.7833L21.3336 15.8215L21.3581 15.8602L21.3822 15.899L21.406 15.9382L21.4293 15.9777L21.4523 16.0175L21.4749 16.0576L21.4971 16.098L21.5189 16.1386L21.5404 16.1796L21.5613 16.2208L21.582 16.2622L21.6021 16.304L21.6219 16.3461L21.6413 16.3883L21.6602 16.4309L21.6788 16.4737L21.6969 16.5167L21.7145 16.56L21.7317 16.6035L21.7485 16.6473L21.7649 16.6913L21.7809 16.7355L21.7963 16.78L21.8113 16.8246L21.8259 16.8695L21.84 16.9146L21.8537 16.9599L21.8668 17.0054L21.8796 17.0512L21.8919 17.097L21.9037 17.1431L21.915 17.1894L21.9259 17.2359L21.9363 17.2825L21.9462 17.3293L21.9557 17.3763L21.9645 17.4233L21.973 17.4707L21.981 17.5181L21.9885 17.5657L21.9955 17.6134L22.002 17.6613L22.008 17.7093L22.0135 17.7574L22.0185 17.8057L22.023 17.854L22.027 17.9025L22.0305 17.9511L22.0335 17.9998L22.036 18.0485L22.0379 18.0974L22.0394 18.1464L22.0403 18.1954L22.0408 18.2446L22.0406 18.2937L22.0401 18.3429L22.0389 18.3923L22.0373 18.4417L22.0351 18.4911L22.0324 18.5405L22.0292 18.5901L22.0254 18.6396L22.0211 18.6892L22.0163 18.7388L22.011 18.7884L22.0051 18.838L21.9987 18.8877L21.9918 18.9373L21.9844 18.9869L21.9764 19.0366L21.9678 19.0861L21.9588 19.1357L21.9492 19.1854L21.9391 19.2349L21.9284 19.2844L21.9172 19.3338L21.9055 19.3833L21.8932 19.4326L21.8804 19.482L21.8671 19.5312L21.8532 19.5804L21.8388 19.6294L21.8238 19.6785L21.8084 19.7274L21.7924 19.7762L21.7758 19.825L21.7588 19.8737L21.7411 19.9221L21.7229 19.9706L21.7043 20.0189L21.6851 20.0671L21.6653 20.1151L21.6451 20.163L21.6243 20.2108L21.6029 20.2585L21.5811 20.3059L21.5587 20.3532L21.5357 20.4004L21.5124 20.4473L21.4884 20.4942L21.4639 20.5408L21.4389 20.5872L21.4133 20.6334L21.3873 20.6795L21.3608 20.7253L21.3337 20.771L21.3061 20.8164L21.278 20.8617L21.2494 20.9066L21.2203 20.9513L21.1906 20.9959L21.1605 21.0401L21.1299 21.0842L21.0988 21.128L21.0671 21.1715L21.035 21.2148L21.0024 21.2577L20.9693 21.3005L20.9357 21.3429L20.9016 21.3851L20.867 21.427L20.832 21.4685L20.7965 21.5098L20.7604 21.5508L20.7239 21.5914L20.6869 21.6318L20.6495 21.6718L20.6117 21.7115L20.5732 21.7509L20.5345 21.79L20.4952 21.8286L20.4555 21.867L20.4153 21.905L20.3746 21.9426L20.3336 21.9799L20.2921 22.0169L20.2501 22.0534L20.2077 22.0896L20.1649 22.1253L20.1217 22.1608L20.078 22.1958L20.0339 22.2304L19.9894 22.2646L19.9445 22.2985L19.8992 22.3319L19.8535 22.3649L19.8073 22.3974L19.7609 22.4297L19.7139 22.4613L19.6666 22.4927L19.6189 22.5235L19.5709 22.554L19.5224 22.584L19.4736 22.6135L19.4244 22.6425L19.3749 22.6712L19.3249 22.6994L19.2746 22.727L19.2241 22.7543L19.1731 22.781L19.1218 22.8074L19.0701 22.8331L19.0182 22.8585L18.9659 22.8833L18.9133 22.9076L18.8604 22.9314L18.8071 22.9547L18.7536 22.9776L18.6997 22.9999L18.6456 23.0217L18.5911 23.0429L18.5364 23.0637L18.4813 23.084L18.4261 23.1038L18.3705 23.1229L18.3147 23.1416L18.2586 23.1597L18.2023 23.1773L18.1457 23.1943L18.0889 23.2109L18.0318 23.2268L17.9745 23.2422L17.917 23.257L17.8593 23.2714L17.8013 23.285L17.7431 23.2982L17.6847 23.3108L17.6261 23.3229L17.5673 23.3343L17.5084 23.3452L17.4493 23.3555L17.3899 23.3653L17.3305 23.3744L17.2708 23.3829L17.211 23.391L17.151 23.3984L17.0909 23.4052L17.0307 23.4114L16.9703 23.417L16.9098 23.422L16.8492 23.4265L16.7884 23.4302L16.7276 23.4335L16.6666 23.4361L16.6056 23.4382L16.5444 23.4395L16.4832 23.4403L16.4219 23.4405L16.3605 23.4401L16.2991 23.4391L16.2376 23.4374L16.1761 23.4352L16.1145 23.4323L16.0528 23.4288L15.9911 23.4247L15.9294 23.42L15.8677 23.4146L15.806 23.4086L15.7443 23.4021L15.6825 23.3948L15.6208 23.3869L15.5591 23.3785L15.4974 23.3694L15.4357 23.3597L15.3741 23.3493L15.3125 23.3384L15.251 23.3268L15.1895 23.3146L15.1281 23.3018L15.0667 23.2883L15.0054 23.2742L14.9442 23.2594L14.883 23.2442L14.822 23.2281L14.7611 23.2115L14.7002 23.1943L14.6396 23.1765L14.5789 23.158L14.5185 23.1389L14.4581 23.1192L14.3979 23.0989L14.3379 23.0779L14.278 23.0563L14.2182 23.0341L14.1587 23.0113L14.0993 22.9878L14.04 22.9638L13.981 22.9391L13.9222 22.9138L13.8636 22.8879L13.8051 22.8614L13.7469 22.8343L13.6889 22.8065L13.6311 22.7782L13.5736 22.7493L13.5163 22.7197L13.4593 22.6896L13.4025 22.6589L13.3459 22.6275L13.2896 22.5956L13.2336 22.563L13.1779 22.5299L13.1225 22.4962L13.0673 22.4619L13.0125 22.427L12.9579 22.3916L12.9037 22.3555L12.8497 22.3189L12.7962 22.2817L12.7429 22.2439L12.69 22.2056L12.6374 22.1666L12.5852 22.1272L12.5333 22.0872L12.4818 22.0466L12.4307 22.0054L12.3799 21.9638L12.3295 21.9215L12.2795 21.8787L12.2299 21.8354L12.1807 21.7915L12.1319 21.7471L12.0835 21.7022L12.0355 21.6567L11.988 21.6107L11.9408 21.5642L11.8941 21.5172L11.8479 21.4697L11.8021 21.4216L11.7567 21.3731L11.7118 21.324L11.6674 21.2745L11.6234 21.2245L11.58 21.1739L11.5369 21.1229L11.4944 21.0714L11.4524 21.0194L11.4109 20.967L11.3698 20.9142L11.3293 20.8608L11.2893 20.8069L11.2498 20.7527L11.2109 20.698L11.1724 20.6428L11.1345 20.5872L11.0971 20.5312L11.0603 20.4747L11.0241 20.4178L10.9883 20.3605L10.9532 20.3029L10.9185 20.2447L10.8845 20.1862L10.8511 20.1273L10.8182 20.068L10.7859 20.0083L10.7542 19.9482L10.7231 19.8877L10.6925 19.827L10.6626 19.7658L10.6333 19.7042L10.6046 19.6424L10.5765 19.5802L10.5491 19.5176L10.5222 19.4546L10.496 19.3914L10.4704 19.3278L10.4454 19.264L10.4211 19.1998L10.3975 19.1353L10.3745 19.0705L10.352 19.0054L10.3303 18.9401L10.3093 18.8744L10.2889 18.8085L10.2691 18.7423L10.25 18.6758L10.2316 18.6091L10.2139 18.5422L10.1968 18.475L10.1805 18.4075L10.1648 18.3399L10.1497 18.272L10.1354 18.2039L10.1218 18.1356L10.1089 18.0671L10.0966 17.9984L10.0851 17.9295L10.0743 17.8605L10.0641 17.7912L10.0547 17.7218L10.0461 17.6522L10.0381 17.5826L10.0308 17.5126L10.0242 17.4426L10.0184 17.3725L10.0133 17.3022L10.0089 17.2318L10.0052 17.1614L10.0022 17.0908L9.99997 17.0201L9.99853 16.9493L9.99781 16.8785L9.99773 16.8075L9.99845 16.7365L9.99997 16.6654L10.0021 16.5943L10.0051 16.5231L10.0088 16.4519L10.0132 16.3807L10.0183 16.3094L10.0242 16.2382L10.0309 16.1669L10.0382 16.0956L10.0464 16.0243L10.0553 15.953L10.0649 15.8818L10.0753 15.8106L10.0864 15.7394L10.0983 15.6683L10.1109 15.5972L10.1242 15.5261L10.1384 15.4552L10.1533 15.3843L10.1688 15.3135L10.1852 15.2428L10.2023 15.1722L10.2201 15.1017L10.2388 15.0313L10.2581 14.961L10.2782 14.8909L10.299 14.8208L10.3206 14.7509L10.3429 14.6812L10.366 14.6116L10.3898 14.5422L10.4144 14.4729L10.4397 14.4039L10.4657 14.335L10.4924 14.2664L10.52 14.1979L10.5482 14.1296L10.5772 14.0616L10.6069 13.9938L10.6373 13.9261L10.6685 13.8588L10.7004 13.7917L10.7329 13.7249L10.7663 13.6582L10.8003 13.5919L10.8351 13.5259L10.8705 13.4602L10.9068 13.3947L10.9437 13.3295L10.9812 13.2646L11.0196 13.2001L11.0586 13.1359L11.0983 13.072L11.1388 13.0085L11.1799 12.9452L11.2217 12.8823L11.2641 12.8198L11.3073 12.7577L11.3512 12.6959L11.3957 12.6345L11.4409 12.5735L11.4868 12.5129L11.5333 12.4527L11.5805 12.3929L11.6285 12.3335L11.677 12.2745L11.7261 12.216L11.776 12.1578L11.8265 12.1002L11.8776 12.0429L11.9293 11.9861L11.9817 11.9299L12.0348 11.8741L12.0885 11.8187L12.1427 11.7638L12.1976 11.7094L12.2531 11.6555L12.3092 11.6021L12.3659 11.5493L12.4232 11.4969L12.481 11.445L12.5395 11.3937L12.5986 11.3429L12.6582 11.2926L12.7185 11.2429L12.7792 11.1938L12.8405 11.1452L12.9024 11.0972L12.9649 11.0498L13.0278 11.0029L13.0913 10.9565L13.1554 10.9109L13.22 10.8657L13.2851 10.8212L13.3508 10.7773L13.4169 10.734L13.4835 10.6913L13.5507 10.6493L13.6183 10.6078L13.6865 10.567L13.755 10.5269L13.8241 10.4873L13.8937 10.4485L13.9637 10.4102L14.0341 10.3727L14.105 10.3358L14.1764 10.2996L14.2481 10.2641L14.3204 10.2292L14.393 10.195L14.4661 10.1615L14.5395 10.1287L14.6133 10.0966L14.6877 10.0652L14.7623 10.0345L14.8372 10.0045L14.9127 9.97527L14.9885 9.94671L15.0645 9.91887L15.141 9.89183L15.2179 9.86543L15.295 9.83983L15.3725 9.81495L15.4503 9.79079L15.5285 9.76743L15.6068 9.74479L15.6856 9.72295L15.7646 9.70183L15.8439 9.68143L15.9235 9.66183L16.0033 9.64303L16.0835 9.62503L16.1638 9.60775L16.2445 9.59127L16.3253 9.57559L16.3658 9.56807ZM17.3593 15.3763L16.4373 15.5966L16.3831 11.029L16.3397 11.0388L16.2742 11.0542L16.2088 11.0703L16.144 11.0869L16.0792 11.1042L16.0148 11.1221L15.9504 11.1408L15.8866 11.1598L15.8227 11.1797L15.7596 11.1999L15.6963 11.221L15.6334 11.2425L15.5708 11.2647L15.5085 11.2874L15.4468 11.3107L15.3851 11.3347L15.3237 11.3592L15.2628 11.3842L15.2019 11.41L15.1418 11.4361L15.0817 11.4629L15.0222 11.4902L14.9628 11.5182L14.9039 11.5466L14.8452 11.5757L14.7871 11.6052L14.7292 11.6353L14.6718 11.6659L14.6148 11.697L14.5581 11.7287L14.5017 11.761L14.4461 11.7936L14.3903 11.827L14.3353 11.8606L14.2807 11.8949L14.2264 11.9296L14.1725 11.9649L14.1192 12.0006L14.0662 12.0369L14.0137 12.0735L13.9616 12.1106L13.9099 12.1483L13.8587 12.1865L13.808 12.225L13.7577 12.2641L13.7079 12.3034L13.6586 12.3433L13.6096 12.3837L13.5612 12.4246L13.5133 12.4658L13.4659 12.5074L13.4189 12.5494L13.3725 12.5919L13.3264 12.6349L13.281 12.6781L13.2361 12.7218L13.1915 12.7659L13.1476 12.8103L13.1041 12.8552L13.0613 12.9003L13.0187 12.9461L12.9769 12.9919L12.9355 13.0382L12.8946 13.0849L12.8544 13.1318L12.8145 13.1793L12.7754 13.2268L12.7366 13.275L12.6985 13.3232L12.6609 13.3719L12.6238 13.4209L12.5873 13.4701L12.5513 13.5197L12.516 13.5695L12.4811 13.6198L12.4468 13.6701L12.4131 13.7209L12.38 13.7718L12.3474 13.823L12.3153 13.8746L12.284 13.9263L12.253 13.9785L12.2228 14.0306L12.193 14.0831L12.1638 14.1358L12.1353 14.1887L12.1073 14.2418L12.08 14.2952L12.0531 14.3489L12.0269 14.4025L12.0013 14.4565L11.9762 14.5106L11.9518 14.5649L11.9279 14.6194L11.9046 14.6742L11.882 14.7289L11.8599 14.7839L11.8385 14.839L11.8175 14.8943L11.7973 14.9496L11.7776 15.0052L11.7585 15.0609L11.74 15.1166L11.7221 15.1725L11.7048 15.2285L11.6881 15.2846L11.6721 15.3407L11.6565 15.397L11.6416 15.4534L11.6273 15.5098L11.6137 15.5663L11.6005 15.6229L11.588 15.6795L11.5762 15.7362L11.5649 15.7929L11.5542 15.8496L11.5441 15.9065L11.5347 15.9632L11.5258 16.02L11.5175 16.077L11.5098 16.1337L11.5028 16.1906L11.4963 16.2473L11.4904 16.3042L11.4851 16.3612L11.4804 16.4179L11.4763 16.4747L11.4728 16.5315L11.4698 16.5882L11.4675 16.6448L11.4657 16.7013L11.4646 16.758L11.464 16.8145L11.4641 16.8709L11.4646 16.9272L11.4658 16.9835L11.4676 17.0397L11.4699 17.0957L11.4728 17.1518L11.4763 17.2076L11.4804 17.2633L11.485 17.319L11.4902 17.3745L11.496 17.4301L11.5023 17.4852L11.5092 17.5405L11.5166 17.5954L11.5247 17.6503L11.5333 17.705L11.5424 17.7595L11.5521 17.814L11.5623 17.8681L11.5731 17.9222L11.5844 17.976L11.5963 18.0298L11.6087 18.0832L11.6216 18.1365L11.6351 18.1895L11.6492 18.2425L11.6637 18.2951L11.6787 18.3477L11.6943 18.3998L11.7104 18.4519L11.727 18.5037L11.7441 18.5551L11.7618 18.6066L11.78 18.6576L11.7986 18.7083L11.8177 18.7589L11.8374 18.8093L11.8576 18.8593L11.8782 18.909L11.8993 18.9585L11.9209 19.0077L11.943 19.0567L11.9656 19.1054L11.9886 19.1537L12.012 19.2017L12.0361 19.2496L12.0605 19.2969L12.0853 19.3441L12.1107 19.391L12.1365 19.4374L12.1628 19.4837L12.1894 19.5296L12.2165 19.575L12.2441 19.6203L12.2721 19.6652L12.3005 19.7097L12.3293 19.7539L12.3585 19.7978L12.3882 19.8414L12.4182 19.8843L12.4487 19.9272L12.4796 19.9696L12.5108 20.0116L12.5425 20.0534L12.5745 20.0946L12.6069 20.1355L12.6397 20.1761L12.6729 20.2163L12.7064 20.256L12.7404 20.2954L12.7746 20.3345L12.8092 20.373L12.8443 20.4113L12.8795 20.4489L12.9152 20.4865L12.9512 20.5234L12.9874 20.56L13.0241 20.5962L13.0611 20.6319L13.0984 20.6673L13.136 20.7022L13.1739 20.7366L13.2121 20.7707L13.2506 20.8043L13.2894 20.8375L13.3285 20.8703L13.3678 20.9026L13.4075 20.9345L13.4475 20.966L13.4876 20.997L13.5281 21.0275L13.5688 21.0577L13.6097 21.0873L13.6509 21.1166L13.6924 21.1453L13.734 21.1737L13.776 21.2015L13.818 21.2289L13.8604 21.2558L13.9031 21.2824L13.9458 21.3083L13.9888 21.3339L14.0321 21.359L14.0753 21.3836L14.1189 21.4078L14.1628 21.4315L14.2067 21.4547L14.2508 21.4774L14.295 21.4997L14.3396 21.5215L14.3841 21.5428L14.4289 21.5637L14.4738 21.5841L14.5188 21.6039L14.5641 21.6234L14.6094 21.6423L14.6548 21.6608L14.7004 21.6788L14.7461 21.6962L14.792 21.7133L14.8377 21.7298L14.8839 21.7459L14.9299 21.7614L14.9761 21.7765L15.0224 21.7912L15.0688 21.8053L15.1152 21.819L15.1617 21.8321L15.2083 21.8448L15.2549 21.857L15.3016 21.8687L15.3483 21.88L15.395 21.8907L15.4418 21.9009L15.4887 21.9108L15.5356 21.9201L15.5825 21.9289L15.6293 21.9373L15.6763 21.9452L15.7233 21.9526L15.7702 21.9595L15.817 21.9659L15.864 21.9718L15.9109 21.9774L15.9578 21.9824L16.0047 21.9869L16.0516 21.9909L16.0984 21.9946L16.1451 21.9977L16.1919 22.0003L16.2385 22.0025L16.2851 22.0042L16.3318 22.0054L16.3782 22.0062L16.4246 22.0065L16.471 22.0064L16.5173 22.0058L16.5636 22.0047L16.6097 22.0032L16.6557 22.0013L16.7016 21.9988L16.7476 21.9959L16.7932 21.9925L16.8389 21.9888L16.8843 21.9845L16.9297 21.9799L16.975 21.9747L17.0201 21.9692L17.0652 21.9632L17.11 21.9567L17.1546 21.9498L17.1993 21.9425L17.2437 21.9348L17.288 21.9266L17.3321 21.918L17.3761 21.9089L17.4198 21.8995L17.4633 21.8897L17.5068 21.8793L17.5501 21.8686L17.5932 21.8576L17.6361 21.8461L17.6787 21.8342L17.7213 21.8218L17.7636 21.809L17.8055 21.7959L17.8476 21.7823L17.8892 21.7684L17.9306 21.7541L17.9718 21.7394L18.0128 21.7243L18.0536 21.7088L18.0942 21.6929L18.1345 21.6767L18.1745 21.6602L18.2144 21.6431L18.254 21.6257L18.2933 21.6081L18.3325 21.59L18.3713 21.5716L18.4097 21.5528L18.4481 21.5337L18.4861 21.5142L18.5239 21.4944L18.5614 21.4741L18.5986 21.4537L18.6355 21.4329L18.6722 21.4117L18.7086 21.3902L18.7446 21.3683L18.7804 21.3462L18.8159 21.3237L18.8511 21.3009L18.8861 21.2778L18.9206 21.2545L18.9549 21.2307L18.9889 21.2067L19.0225 21.1825L19.0559 21.1578L19.0889 21.1329L19.1217 21.1077L19.1541 21.0823L19.1862 21.0565L19.2179 21.0306L19.2493 21.0044L19.2804 20.9778L19.3111 20.951L19.3416 20.924L19.3717 20.8966L19.4014 20.8691L19.4307 20.8414L19.4598 20.8133L19.4885 20.7849L19.5169 20.7565L19.5449 20.7278L19.5725 20.6987L19.5998 20.6696L19.6269 20.6401L19.6533 20.6105L19.6797 20.5806L19.7055 20.5506L19.7309 20.5204L19.7562 20.4898L19.7809 20.4593L19.8053 20.4284L19.8294 20.3974L19.853 20.3662L19.8764 20.3348L19.8993 20.3034L19.9218 20.2715L19.9441 20.2396L19.9658 20.2077L19.9872 20.1754L20.0084 20.143L20.0289 20.1105L20.0493 20.0779L20.0692 20.0451L20.0887 20.0121L20.1079 19.9791L20.1266 19.9459L20.145 19.9126L20.163 19.8791L20.1806 19.8457L20.1978 19.812L20.2147 19.7782L20.2312 19.7444L20.2473 19.7103L20.2629 19.6763L20.2782 19.6421L20.2931 19.608L20.3077 19.5736L20.3217 19.5393L20.3356 19.5046L20.3489 19.4703L20.3619 19.4354L20.3744 19.4011L20.3866 19.3662L20.3985 19.3314L20.4098 19.2966L20.4209 19.2617L20.4315 19.2269L20.4418 19.1917L20.4516 19.157L20.4612 19.1217L20.4702 19.087L20.4789 19.0518L20.4872 19.0166L20.4952 18.9817L20.5027 18.9468L20.5099 18.9114L20.5167 18.8765L20.5231 18.8412L20.5291 18.8063L20.5348 18.7713L20.5401 18.7362L20.5449 18.701L20.5494 18.666L20.5536 18.6311L20.5573 18.5963L20.5607 18.5612L20.5637 18.5264L20.5664 18.4915L20.5686 18.4567L20.5705 18.422L20.5721 18.3874L20.5732 18.3529L20.574 18.3181L20.5745 18.2835L20.5745 18.2492L20.5742 18.2149L20.5736 18.1806L20.5725 18.1465L20.5712 18.1122L20.5694 18.0785L20.5673 18.0441L20.5649 18.0105L20.5621 17.9769L20.559 17.9429L20.5555 17.9094L20.5517 17.8762L20.5475 17.8426L20.543 17.8096L20.5381 17.7764L20.533 17.7437L20.5274 17.7106L20.5216 17.6778L20.5154 17.6453L20.5089 17.613L20.5021 17.5805L20.4949 17.5484L20.4874 17.5163L20.4796 17.4845L20.4715 17.4529L20.4629 17.421L20.4543 17.3898L20.4452 17.3583L20.4358 17.3274L20.4261 17.2964L20.4161 17.2657L20.4058 17.235L20.3952 17.2045L20.3844 17.1744L20.3732 17.1444L20.3617 17.1143L20.3499 17.0847L20.3378 17.055L20.3256 17.0259L20.3129 16.9965L20.3001 16.9677L20.2868 16.939L20.2734 16.9104L20.2597 16.8821L20.2457 16.8539L20.2315 16.8259L20.217 16.7982L20.2022 16.7707L20.1873 16.7434L20.172 16.7163L20.1564 16.6894L20.1407 16.6628L20.1247 16.6364L20.1084 16.6101L20.0919 16.5842L20.0752 16.5585L20.0582 16.5329L20.041 16.5076L20.0236 16.4826L20.006 16.4578L19.9881 16.4332L19.9701 16.4089L19.9517 16.3848L19.9333 16.3609L19.9145 16.3373L19.8957 16.314L19.8765 16.2909L19.8573 16.268L19.8377 16.2453L19.8181 16.223L19.7982 16.2009L19.7781 16.1791L19.7579 16.1574L19.7375 16.1361L19.7169 16.1151L19.6961 16.0942L19.6752 16.0737L19.6541 16.0535L19.6329 16.0335L19.6112 16.0137L19.5898 15.9942L19.5681 15.9749L19.5462 15.9561L19.5241 15.9373L19.502 15.919L19.4797 15.9009L19.4573 15.883L19.4347 15.8654L19.412 15.8481L19.3892 15.8311L19.3662 15.8143L19.3431 15.7978L19.32 15.7817L19.2967 15.7657L19.2733 15.7501L19.2498 15.7347L19.2261 15.7196L19.2025 15.7048L19.1786 15.6902L19.1548 15.676L19.1308 15.6621L19.1068 15.6484L19.0825 15.6349L19.0584 15.6218L19.0341 15.6089L19.0097 15.5964L18.9854 15.5841L18.9608 15.5721L18.9363 15.5604L18.9116 15.549L18.887 15.5378L18.8623 15.5269L18.8374 15.5163L18.8128 15.5061L18.7878 15.4961L18.7629 15.4863L18.738 15.4769L18.713 15.4677L18.6881 15.4588L18.663 15.4501L18.638 15.4417L18.613 15.4337L18.5879 15.4259L18.5628 15.4184L18.5378 15.4112L18.5125 15.4042L18.4876 15.3976L18.4625 15.3912L18.4373 15.385L18.4122 15.3792L18.3872 15.3736L18.3621 15.3683L18.337 15.3633L18.312 15.3585L18.2871 15.354L18.262 15.3497L18.2372 15.3458L18.212 15.3421L18.1873 15.3387L18.1624 15.3355L18.1376 15.3326L18.1129 15.33L18.0881 15.3277L18.0635 15.3255L18.0389 15.3237L18.0143 15.3221L17.9897 15.3207L17.9653 15.3197L17.941 15.3189L17.9166 15.3182L17.8924 15.3179L17.8681 15.3178L17.8441 15.3181L17.82 15.3185L17.7961 15.3191L17.7721 15.3201L17.7484 15.3212L17.7246 15.3226L17.7011 15.3242L17.6776 15.3261L17.6541 15.3282L17.6308 15.3306L17.6075 15.3331L17.5844 15.3359L17.5614 15.339L17.5385 15.3422L17.5157 15.3457L17.493 15.3494L17.4704 15.3533L17.448 15.3575L17.4256 15.3619L17.4034 15.3665L17.3813 15.3713L17.3593 15.3763Z"
            fill="#C9C7C7"
          />
          <path
            d="M49.6162 19.9543C49.6162 19.6497 49.5693 19.3762 49.4756 19.134C49.3896 18.884 49.2256 18.6575 48.9834 18.4543C48.7412 18.2434 48.4014 18.0364 47.9639 17.8333C47.5264 17.6301 46.96 17.4192 46.2646 17.2004C45.4912 16.9504 44.7568 16.6692 44.0615 16.3567C43.374 16.0442 42.7646 15.6809 42.2334 15.2668C41.71 14.845 41.2959 14.3567 40.9912 13.802C40.6943 13.2473 40.5459 12.6028 40.5459 11.8684C40.5459 11.1575 40.7021 10.5129 41.0146 9.93481C41.3271 9.34888 41.7646 8.84888 42.3271 8.43481C42.8896 8.01294 43.5537 7.68872 44.3193 7.46216C45.0928 7.2356 45.9404 7.12231 46.8623 7.12231C48.1201 7.12231 49.2178 7.34888 50.1553 7.802C51.0928 8.25513 51.8193 8.87622 52.335 9.66528C52.8584 10.4543 53.1201 11.3567 53.1201 12.3723H49.6279C49.6279 11.8723 49.5225 11.4348 49.3115 11.0598C49.1084 10.677 48.7959 10.3762 48.374 10.1575C47.96 9.93872 47.4365 9.82935 46.8037 9.82935C46.1943 9.82935 45.6865 9.9231 45.2803 10.1106C44.874 10.2903 44.5693 10.5364 44.3662 10.8489C44.1631 11.1536 44.0615 11.4973 44.0615 11.8801C44.0615 12.1692 44.1318 12.4309 44.2725 12.6653C44.4209 12.8997 44.6396 13.1184 44.9287 13.3215C45.2178 13.5247 45.5732 13.7161 45.9951 13.8958C46.417 14.0754 46.9053 14.2512 47.46 14.4231C48.3896 14.7043 49.2061 15.0208 49.9092 15.3723C50.6201 15.7239 51.2139 16.1184 51.6904 16.5559C52.167 16.9934 52.5264 17.4895 52.7686 18.0442C53.0107 18.5989 53.1318 19.2278 53.1318 19.9309C53.1318 20.6731 52.9873 21.3372 52.6982 21.9231C52.4092 22.509 51.9912 23.0051 51.4443 23.4114C50.8975 23.8176 50.2451 24.1262 49.4873 24.3372C48.7295 24.5481 47.8818 24.6536 46.9443 24.6536C46.1006 24.6536 45.2686 24.5442 44.4482 24.3254C43.6279 24.0989 42.8818 23.759 42.21 23.3059C41.5459 22.8528 41.0146 22.2747 40.6162 21.5715C40.2178 20.8684 40.0186 20.0364 40.0186 19.0754H43.5459C43.5459 19.6067 43.6279 20.0559 43.792 20.4231C43.9561 20.7903 44.1865 21.0872 44.4834 21.3137C44.7881 21.5403 45.1475 21.7043 45.5615 21.8059C45.9834 21.9075 46.4443 21.9583 46.9443 21.9583C47.5537 21.9583 48.0537 21.8723 48.4443 21.7004C48.8428 21.5286 49.1357 21.2903 49.3232 20.9856C49.5186 20.6809 49.6162 20.3372 49.6162 19.9543ZM66.9014 14.3059V17.0481H57.9951V14.3059H66.9014ZM59.0381 7.35669V24.4192H55.5225V7.35669H59.0381ZM69.4092 7.35669V24.4192H65.9053V7.35669H69.4092ZM83.917 21.677V24.4192H74.835V21.677H83.917ZM75.9834 7.35669V24.4192H72.4678V7.35669H75.9834ZM82.7334 14.3059V16.9778H74.835V14.3059H82.7334ZM83.9053 7.35669V10.1106H74.835V7.35669H83.9053ZM96.9365 21.677V24.4192H88.3467V21.677H96.9365ZM89.4834 7.35669V24.4192H85.9678V7.35669H89.4834ZM109.921 21.677V24.4192H101.331V21.677H109.921ZM102.468 7.35669V24.4192H98.9521V7.35669H102.468ZM120.819 19.9543C120.819 19.6497 120.772 19.3762 120.679 19.134C120.593 18.884 120.429 18.6575 120.187 18.4543C119.944 18.2434 119.604 18.0364 119.167 17.8333C118.729 17.6301 118.163 17.4192 117.468 17.2004C116.694 16.9504 115.96 16.6692 115.265 16.3567C114.577 16.0442 113.968 15.6809 113.437 15.2668C112.913 14.845 112.499 14.3567 112.194 13.802C111.897 13.2473 111.749 12.6028 111.749 11.8684C111.749 11.1575 111.905 10.5129 112.218 9.93481C112.53 9.34888 112.968 8.84888 113.53 8.43481C114.093 8.01294 114.757 7.68872 115.522 7.46216C116.296 7.2356 117.144 7.12231 118.065 7.12231C119.323 7.12231 120.421 7.34888 121.358 7.802C122.296 8.25513 123.022 8.87622 123.538 9.66528C124.062 10.4543 124.323 11.3567 124.323 12.3723H120.831C120.831 11.8723 120.726 11.4348 120.515 11.0598C120.312 10.677 119.999 10.3762 119.577 10.1575C119.163 9.93872 118.64 9.82935 118.007 9.82935C117.397 9.82935 116.89 9.9231 116.483 10.1106C116.077 10.2903 115.772 10.5364 115.569 10.8489C115.366 11.1536 115.265 11.4973 115.265 11.8801C115.265 12.1692 115.335 12.4309 115.476 12.6653C115.624 12.8997 115.843 13.1184 116.132 13.3215C116.421 13.5247 116.776 13.7161 117.198 13.8958C117.62 14.0754 118.108 14.2512 118.663 14.4231C119.593 14.7043 120.409 15.0208 121.112 15.3723C121.823 15.7239 122.417 16.1184 122.894 16.5559C123.37 16.9934 123.729 17.4895 123.972 18.0442C124.214 18.5989 124.335 19.2278 124.335 19.9309C124.335 20.6731 124.19 21.3372 123.901 21.9231C123.612 22.509 123.194 23.0051 122.647 23.4114C122.101 23.8176 121.448 24.1262 120.69 24.3372C119.933 24.5481 119.085 24.6536 118.147 24.6536C117.304 24.6536 116.472 24.5442 115.651 24.3254C114.831 24.0989 114.085 23.759 113.413 23.3059C112.749 22.8528 112.218 22.2747 111.819 21.5715C111.421 20.8684 111.222 20.0364 111.222 19.0754H114.749C114.749 19.6067 114.831 20.0559 114.995 20.4231C115.159 20.7903 115.39 21.0872 115.687 21.3137C115.991 21.5403 116.351 21.7043 116.765 21.8059C117.187 21.9075 117.647 21.9583 118.147 21.9583C118.757 21.9583 119.257 21.8723 119.647 21.7004C120.046 21.5286 120.339 21.2903 120.526 20.9856C120.722 20.6809 120.819 20.3372 120.819 19.9543Z"
            fill="#C9C7C7"
          />
        </svg>