<svg
          width="134"
          height="33"
          viewBox="0 0 134 33"
          fill="none"
          xmlns="http://www.w3.org/2000/svg"
        >
          <path
            fill-rule="evenodd"
            clip-rule="evenodd"
            d="M16.8096 32.4192C25.6462 32.4192 32.8096 25.2557 32.8096 16.4192C32.8096 7.58264 25.6462 0.419189 16.8096 0.419189C7.97301 0.419189 0.80957 7.58264 0.80957 16.4192C0.80957 25.2557 7.97301 32.4192 16.8096 32.4192ZM21.801 7.87267C22.044 7.00963 21.2065 6.4993 20.4416 7.04423L9.76407 14.6509C8.93455 15.2418 9.06503 16.4192 9.96007 16.4192H12.7718V16.3974H18.2516L13.7866 17.9729L11.8182 24.9657C11.5752 25.8288 12.4126 26.3391 13.1776 25.7941L23.8551 18.1876C24.6846 17.5966 24.5541 16.4192 23.6591 16.4192H19.3953L21.801 7.87267Z"
            fill="#C9C7C7"
          />
          <path
            d="M54.6729 21.677V24.4192H42.5791V21.677H54.6729ZM54.4971 9.31372L44.1377 24.4192H41.665V22.4036L52.1064 7.35669H54.4971V9.31372ZM53.29 7.35669V10.1106H41.6768V7.35669H53.29ZM55.9033 18.2083V17.9622C55.9033 17.0325 56.0361 16.177 56.3018 15.3958C56.5674 14.6067 56.9541 13.9231 57.4619 13.345C57.9697 12.7668 58.5947 12.3176 59.3369 11.9973C60.0791 11.6692 60.9307 11.5051 61.8916 11.5051C62.8525 11.5051 63.708 11.6692 64.458 11.9973C65.208 12.3176 65.8369 12.7668 66.3447 13.345C66.8604 13.9231 67.251 14.6067 67.5166 15.3958C67.7822 16.177 67.915 17.0325 67.915 17.9622V18.2083C67.915 19.1301 67.7822 19.9856 67.5166 20.7747C67.251 21.5559 66.8604 22.2395 66.3447 22.8254C65.8369 23.4036 65.2119 23.8528 64.4697 24.1731C63.7275 24.4934 62.876 24.6536 61.915 24.6536C60.9541 24.6536 60.0986 24.4934 59.3486 24.1731C58.6064 23.8528 57.9775 23.4036 57.4619 22.8254C56.9541 22.2395 56.5674 21.5559 56.3018 20.7747C56.0361 19.9856 55.9033 19.1301 55.9033 18.2083ZM59.2783 17.9622V18.2083C59.2783 18.7395 59.3252 19.2356 59.4189 19.6965C59.5127 20.1575 59.6611 20.5637 59.8643 20.9153C60.0752 21.259 60.3486 21.5286 60.6846 21.7239C61.0205 21.9192 61.4307 22.0168 61.915 22.0168C62.3838 22.0168 62.7861 21.9192 63.1221 21.7239C63.458 21.5286 63.7275 21.259 63.9307 20.9153C64.1338 20.5637 64.2822 20.1575 64.376 19.6965C64.4775 19.2356 64.5283 18.7395 64.5283 18.2083V17.9622C64.5283 17.4465 64.4775 16.9622 64.376 16.509C64.2822 16.0481 64.1299 15.6418 63.9189 15.2903C63.7158 14.9309 63.4463 14.6497 63.1104 14.4465C62.7744 14.2434 62.3682 14.1418 61.8916 14.1418C61.415 14.1418 61.0088 14.2434 60.6729 14.4465C60.3447 14.6497 60.0752 14.9309 59.8643 15.2903C59.6611 15.6418 59.5127 16.0481 59.4189 16.509C59.3252 16.9622 59.2783 17.4465 59.2783 17.9622ZM69.4502 18.2083V17.9622C69.4502 17.0325 69.583 16.177 69.8486 15.3958C70.1143 14.6067 70.501 13.9231 71.0088 13.345C71.5166 12.7668 72.1416 12.3176 72.8838 11.9973C73.626 11.6692 74.4775 11.5051 75.4385 11.5051C76.3994 11.5051 77.2549 11.6692 78.0049 11.9973C78.7549 12.3176 79.3838 12.7668 79.8916 13.345C80.4072 13.9231 80.7979 14.6067 81.0635 15.3958C81.3291 16.177 81.4619 17.0325 81.4619 17.9622V18.2083C81.4619 19.1301 81.3291 19.9856 81.0635 20.7747C80.7979 21.5559 80.4072 22.2395 79.8916 22.8254C79.3838 23.4036 78.7588 23.8528 78.0166 24.1731C77.2744 24.4934 76.4229 24.6536 75.4619 24.6536C74.501 24.6536 73.6455 24.4934 72.8955 24.1731C72.1533 23.8528 71.5244 23.4036 71.0088 22.8254C70.501 22.2395 70.1143 21.5559 69.8486 20.7747C69.583 19.9856 69.4502 19.1301 69.4502 18.2083ZM72.8252 17.9622V18.2083C72.8252 18.7395 72.8721 19.2356 72.9658 19.6965C73.0596 20.1575 73.208 20.5637 73.4111 20.9153C73.6221 21.259 73.8955 21.5286 74.2314 21.7239C74.5674 21.9192 74.9775 22.0168 75.4619 22.0168C75.9307 22.0168 76.333 21.9192 76.6689 21.7239C77.0049 21.5286 77.2744 21.259 77.4775 20.9153C77.6807 20.5637 77.8291 20.1575 77.9229 19.6965C78.0244 19.2356 78.0752 18.7395 78.0752 18.2083V17.9622C78.0752 17.4465 78.0244 16.9622 77.9229 16.509C77.8291 16.0481 77.6768 15.6418 77.4658 15.2903C77.2627 14.9309 76.9932 14.6497 76.6572 14.4465C76.3213 14.2434 75.915 14.1418 75.4385 14.1418C74.9619 14.1418 74.5557 14.2434 74.2197 14.4465C73.8916 14.6497 73.6221 14.9309 73.4111 15.2903C73.208 15.6418 73.0596 16.0481 72.9658 16.509C72.8721 16.9622 72.8252 17.4465 72.8252 17.9622ZM86.9111 14.3645V24.4192H83.5244V11.7395H86.7002L86.9111 14.3645ZM86.4424 17.634H85.5049C85.5049 16.7512 85.6104 15.9387 85.8213 15.1965C86.04 14.4465 86.3564 13.7981 86.7705 13.2512C87.1924 12.6965 87.7119 12.2668 88.3291 11.9622C88.9463 11.6575 89.6611 11.5051 90.4736 11.5051C91.0361 11.5051 91.5518 11.5911 92.0205 11.7629C92.4893 11.927 92.8916 12.1887 93.2275 12.5481C93.5713 12.8997 93.8369 13.3606 94.0244 13.9309C94.2119 14.4934 94.3057 15.1692 94.3057 15.9583V24.4192H90.9307V16.3333C90.9307 15.7551 90.8525 15.3098 90.6963 14.9973C90.54 14.6848 90.3174 14.4661 90.0283 14.3411C89.7471 14.2161 89.4072 14.1536 89.0088 14.1536C88.5713 14.1536 88.1885 14.2434 87.8604 14.4231C87.54 14.6028 87.2744 14.8528 87.0635 15.1731C86.8525 15.4856 86.6963 15.8528 86.5947 16.2747C86.4932 16.6965 86.4424 17.1497 86.4424 17.634ZM93.9893 17.2473L92.7822 17.3997C92.7822 16.5715 92.8838 15.802 93.0869 15.0911C93.2979 14.3801 93.6064 13.7551 94.0127 13.2161C94.4268 12.677 94.9385 12.259 95.5479 11.9622C96.1572 11.6575 96.8604 11.5051 97.6572 11.5051C98.2666 11.5051 98.8213 11.595 99.3213 11.7747C99.8213 11.9465 100.247 12.2239 100.599 12.6067C100.958 12.9817 101.231 13.4739 101.419 14.0833C101.614 14.6926 101.712 15.4387 101.712 16.3215V24.4192H98.3252V16.3215C98.3252 15.7356 98.2471 15.2903 98.0908 14.9856C97.9424 14.6731 97.7236 14.4583 97.4346 14.3411C97.1533 14.2161 96.8174 14.1536 96.4268 14.1536C96.0205 14.1536 95.665 14.2356 95.3604 14.3997C95.0557 14.5559 94.8018 14.7747 94.5986 15.0559C94.3955 15.3372 94.2432 15.6653 94.1416 16.0403C94.04 16.4075 93.9893 16.8098 93.9893 17.2473ZM110.161 24.6536C109.177 24.6536 108.294 24.4973 107.513 24.1848C106.731 23.8645 106.067 23.4231 105.521 22.8606C104.981 22.2981 104.567 21.6458 104.278 20.9036C103.989 20.1536 103.845 19.3567 103.845 18.5129V18.0442C103.845 17.0833 103.981 16.2043 104.255 15.4075C104.528 14.6106 104.919 13.9192 105.427 13.3333C105.942 12.7473 106.567 12.2981 107.302 11.9856C108.036 11.6653 108.864 11.5051 109.786 11.5051C110.685 11.5051 111.481 11.6536 112.177 11.9504C112.872 12.2473 113.454 12.6692 113.923 13.2161C114.399 13.7629 114.759 14.4192 115.001 15.1848C115.243 15.9426 115.364 16.7864 115.364 17.7161V19.1223H105.286V16.8723H112.048V16.6145C112.048 16.1458 111.962 15.7278 111.79 15.3606C111.626 14.9856 111.376 14.6887 111.04 14.47C110.704 14.2512 110.274 14.1418 109.751 14.1418C109.306 14.1418 108.923 14.2395 108.603 14.4348C108.282 14.6301 108.021 14.9036 107.817 15.2551C107.622 15.6067 107.474 16.0208 107.372 16.4973C107.278 16.9661 107.231 17.4817 107.231 18.0442V18.5129C107.231 19.0208 107.302 19.4895 107.442 19.9192C107.591 20.3489 107.798 20.72 108.063 21.0325C108.337 21.345 108.665 21.5872 109.048 21.759C109.438 21.9309 109.88 22.0168 110.372 22.0168C110.981 22.0168 111.548 21.8997 112.071 21.6653C112.603 21.4231 113.06 21.0598 113.442 20.5754L115.083 22.3567C114.817 22.7395 114.454 23.1067 113.993 23.4583C113.54 23.8098 112.993 24.0989 112.353 24.3254C111.712 24.5442 110.981 24.6536 110.161 24.6536ZM120.661 14.5051V24.4192H117.286V11.7395H120.462L120.661 14.5051ZM124.481 11.6575L124.423 14.7864C124.259 14.7629 124.06 14.7434 123.825 14.7278C123.599 14.7043 123.392 14.6926 123.204 14.6926C122.728 14.6926 122.313 14.7551 121.962 14.8801C121.618 14.9973 121.329 15.1731 121.095 15.4075C120.868 15.6418 120.696 15.927 120.579 16.2629C120.47 16.5989 120.407 16.9817 120.392 17.4114L119.712 17.2004C119.712 16.3801 119.794 15.6262 119.958 14.9387C120.122 14.2434 120.36 13.6379 120.673 13.1223C120.993 12.6067 121.384 12.2083 121.845 11.927C122.306 11.6458 122.833 11.5051 123.427 11.5051C123.614 11.5051 123.806 11.5208 124.001 11.552C124.196 11.5754 124.356 11.6106 124.481 11.6575ZM129.45 14.5051V24.4192H126.075V11.7395H129.251L129.45 14.5051ZM133.271 11.6575L133.212 14.7864C133.048 14.7629 132.849 14.7434 132.614 14.7278C132.388 14.7043 132.181 14.6926 131.993 14.6926C131.517 14.6926 131.103 14.7551 130.751 14.8801C130.407 14.9973 130.118 15.1731 129.884 15.4075C129.657 15.6418 129.485 15.927 129.368 16.2629C129.259 16.5989 129.196 16.9817 129.181 17.4114L128.501 17.2004C128.501 16.3801 128.583 15.6262 128.747 14.9387C128.911 14.2434 129.149 13.6379 129.462 13.1223C129.782 12.6067 130.173 12.2083 130.634 11.927C131.095 11.6458 131.622 11.5051 132.216 11.5051C132.403 11.5051 132.595 11.5208 132.79 11.552C132.985 11.5754 133.146 11.6106 133.271 11.6575Z"
            fill="#C9C7C7"
          />
        </svg>