 <svg
          width="166"
          height="33"
          viewBox="0 0 166 33"
          fill="none"
          xmlns="http://www.w3.org/2000/svg"
        >
          <path
            d="M37.4082 32.4192H50.3259L18.3261 0.419189H5.4082L37.4082 32.4192Z"
            fill="#C9C7C7"
          />
          <path
            d="M24.9619 0.419191L55.8093 31.2665V0.419189H47.4614V10.1583L37.7223 0.419189L24.9619 0.419191Z"
            fill="#475569"
          />
          <path
            d="M0 1.49048V32.4191H8.34782V22.6799L18.0869 32.4191H30.9287L0 1.49048Z"
            fill="#475569"
          />
          <path
            d="M72.2705 10.2747L67.6299 24.4192H63.8916L70.2314 7.35669H72.6104L72.2705 10.2747ZM76.126 24.4192L71.4736 10.2747L71.0986 7.35669H73.501L79.876 24.4192H76.126ZM75.915 18.0676V20.8215H66.9033V18.0676H75.915ZM84.6221 14.5051V24.4192H81.2471V11.7395H84.4229L84.6221 14.5051ZM88.4424 11.6575L88.3838 14.7864C88.2197 14.7629 88.0205 14.7434 87.7861 14.7278C87.5596 14.7043 87.3525 14.6926 87.165 14.6926C86.6885 14.6926 86.2744 14.7551 85.9229 14.8801C85.5791 14.9973 85.29 15.1731 85.0557 15.4075C84.8291 15.6418 84.6572 15.927 84.54 16.2629C84.4307 16.5989 84.3682 16.9817 84.3525 17.4114L83.6729 17.2004C83.6729 16.3801 83.7549 15.6262 83.9189 14.9387C84.083 14.2434 84.3213 13.6379 84.6338 13.1223C84.9541 12.6067 85.3447 12.2083 85.8057 11.927C86.2666 11.6458 86.7939 11.5051 87.3877 11.5051C87.5752 11.5051 87.7666 11.5208 87.9619 11.552C88.1572 11.5754 88.3174 11.6106 88.4424 11.6575ZM96.833 11.7395V14.1301H89.4502V11.7395H96.833ZM91.2783 8.6106H94.6533V20.5989C94.6533 20.9661 94.7002 21.2473 94.7939 21.4426C94.8955 21.6379 95.0439 21.7747 95.2393 21.8528C95.4346 21.9231 95.6807 21.9583 95.9775 21.9583C96.1885 21.9583 96.376 21.9504 96.54 21.9348C96.7119 21.9114 96.8564 21.8879 96.9736 21.8645L96.9854 24.3489C96.6963 24.4426 96.3838 24.5168 96.0479 24.5715C95.7119 24.6262 95.3408 24.6536 94.9346 24.6536C94.1924 24.6536 93.5439 24.5325 92.9893 24.2903C92.4424 24.0403 92.0205 23.6418 91.7236 23.095C91.4268 22.5481 91.2783 21.8293 91.2783 20.9387V8.6106ZM105.118 20.8567L109.138 7.35669H113.052L107.11 24.4192H104.532L105.118 20.8567ZM101.415 7.35669L105.423 20.8567L106.032 24.4192H103.431L97.5244 7.35669H101.415ZM119.755 24.6536C118.771 24.6536 117.888 24.4973 117.106 24.1848C116.325 23.8645 115.661 23.4231 115.114 22.8606C114.575 22.2981 114.161 21.6458 113.872 20.9036C113.583 20.1536 113.438 19.3567 113.438 18.5129V18.0442C113.438 17.0833 113.575 16.2043 113.849 15.4075C114.122 14.6106 114.513 13.9192 115.021 13.3333C115.536 12.7473 116.161 12.2981 116.896 11.9856C117.63 11.6653 118.458 11.5051 119.38 11.5051C120.278 11.5051 121.075 11.6536 121.771 11.9504C122.466 12.2473 123.048 12.6692 123.517 13.2161C123.993 13.7629 124.353 14.4192 124.595 15.1848C124.837 15.9426 124.958 16.7864 124.958 17.7161V19.1223H114.88V16.8723H121.642V16.6145C121.642 16.1458 121.556 15.7278 121.384 15.3606C121.22 14.9856 120.97 14.6887 120.634 14.47C120.298 14.2512 119.868 14.1418 119.345 14.1418C118.899 14.1418 118.517 14.2395 118.196 14.4348C117.876 14.6301 117.614 14.9036 117.411 15.2551C117.216 15.6067 117.067 16.0208 116.966 16.4973C116.872 16.9661 116.825 17.4817 116.825 18.0442V18.5129C116.825 19.0208 116.896 19.4895 117.036 19.9192C117.185 20.3489 117.392 20.72 117.657 21.0325C117.931 21.345 118.259 21.5872 118.642 21.759C119.032 21.9309 119.474 22.0168 119.966 22.0168C120.575 22.0168 121.142 21.8997 121.665 21.6653C122.196 21.4231 122.653 21.0598 123.036 20.5754L124.677 22.3567C124.411 22.7395 124.048 23.1067 123.587 23.4583C123.134 23.8098 122.587 24.0989 121.946 24.3254C121.306 24.5442 120.575 24.6536 119.755 24.6536ZM130.185 14.4465V24.4192H126.81V11.7395H129.974L130.185 14.4465ZM129.692 17.634H128.778C128.778 16.6965 128.899 15.8528 129.142 15.1028C129.384 14.345 129.724 13.7004 130.161 13.1692C130.599 12.6301 131.118 12.22 131.72 11.9387C132.329 11.6497 133.009 11.5051 133.759 11.5051C134.353 11.5051 134.896 11.5911 135.388 11.7629C135.88 11.9348 136.302 12.2083 136.653 12.5833C137.013 12.9583 137.286 13.4543 137.474 14.0715C137.669 14.6887 137.767 15.4426 137.767 16.3333V24.4192H134.368V16.3215C134.368 15.759 134.29 15.3215 134.134 15.009C133.978 14.6965 133.747 14.4778 133.442 14.3528C133.146 14.22 132.778 14.1536 132.341 14.1536C131.888 14.1536 131.493 14.2434 131.157 14.4231C130.829 14.6028 130.556 14.8528 130.337 15.1731C130.126 15.4856 129.966 15.8528 129.856 16.2747C129.747 16.6965 129.692 17.1497 129.692 17.634ZM147.833 21.384V11.7395H151.208V24.4192H148.032L147.833 21.384ZM148.208 18.7825L149.204 18.759C149.204 19.6028 149.106 20.3879 148.911 21.1145C148.716 21.8333 148.423 22.4583 148.032 22.9895C147.642 23.5129 147.149 23.9231 146.556 24.22C145.962 24.509 145.263 24.6536 144.458 24.6536C143.841 24.6536 143.271 24.5676 142.747 24.3958C142.231 24.2161 141.786 23.9387 141.411 23.5637C141.044 23.1809 140.755 22.6926 140.544 22.0989C140.341 21.4973 140.239 20.7747 140.239 19.9309V11.7395H143.614V19.9543C143.614 20.3293 143.657 20.6458 143.743 20.9036C143.837 21.1614 143.966 21.3723 144.13 21.5364C144.294 21.7004 144.485 21.8176 144.704 21.8879C144.931 21.9583 145.181 21.9934 145.454 21.9934C146.149 21.9934 146.696 21.8528 147.095 21.5715C147.501 21.2903 147.786 20.9075 147.95 20.4231C148.122 19.9309 148.208 19.384 148.208 18.7825ZM159.622 24.6536C158.638 24.6536 157.755 24.4973 156.974 24.1848C156.192 23.8645 155.528 23.4231 154.981 22.8606C154.442 22.2981 154.028 21.6458 153.739 20.9036C153.45 20.1536 153.306 19.3567 153.306 18.5129V18.0442C153.306 17.0833 153.442 16.2043 153.716 15.4075C153.989 14.6106 154.38 13.9192 154.888 13.3333C155.403 12.7473 156.028 12.2981 156.763 11.9856C157.497 11.6653 158.325 11.5051 159.247 11.5051C160.146 11.5051 160.942 11.6536 161.638 11.9504C162.333 12.2473 162.915 12.6692 163.384 13.2161C163.86 13.7629 164.22 14.4192 164.462 15.1848C164.704 15.9426 164.825 16.7864 164.825 17.7161V19.1223H154.747V16.8723H161.509V16.6145C161.509 16.1458 161.423 15.7278 161.251 15.3606C161.087 14.9856 160.837 14.6887 160.501 14.47C160.165 14.2512 159.735 14.1418 159.212 14.1418C158.767 14.1418 158.384 14.2395 158.063 14.4348C157.743 14.6301 157.481 14.9036 157.278 15.2551C157.083 15.6067 156.935 16.0208 156.833 16.4973C156.739 16.9661 156.692 17.4817 156.692 18.0442V18.5129C156.692 19.0208 156.763 19.4895 156.903 19.9192C157.052 20.3489 157.259 20.72 157.524 21.0325C157.798 21.345 158.126 21.5872 158.509 21.759C158.899 21.9309 159.341 22.0168 159.833 22.0168C160.442 22.0168 161.009 21.8997 161.532 21.6653C162.063 21.4231 162.521 21.0598 162.903 20.5754L164.544 22.3567C164.278 22.7395 163.915 23.1067 163.454 23.4583C163.001 23.8098 162.454 24.0989 161.813 24.3254C161.173 24.5442 160.442 24.6536 159.622 24.6536Z"
            fill="#475569"
          />
        </svg>